<svg width="235" height="162" viewBox="0 0 235 162" fill="none" xmlns="http://www.w3.org/2000/svg">
<g clip-path="url(#clip0_308_655)">
<path d="M21.2393 70.7528C16.8886 74.3011 24.0078 105.448 24.0078 105.448C24.0078 105.448 25.5899 152.956 28.9517 155.124C32.3136 157.293 39.8283 154.927 42.7947 154.533C45.761 154.139 43.1902 124.766 38.8395 113.924C34.4889 103.082 37.8508 87.3117 37.8508 87.3117L61.3838 91.8457C61.3838 91.8457 47.1453 103.871 47.7386 106.433C48.3318 108.996 63.5591 117.67 66.3277 118.064C69.0963 118.458 74.4357 102.294 79.1818 91.2543C83.928 80.215 46.7498 73.1184 46.7498 73.1184L41.6081 63.459C41.6081 63.459 25.5899 67.2045 21.2393 70.7528Z" fill="#2F2E41"/>
<path d="M33.0499 155.942C33.0499 155.942 31.6149 160.949 33.0499 160.949C34.4849 160.949 37.1158 162.38 41.1817 161.903C45.2477 161.426 44.0518 156.419 41.1817 155.704C38.3117 154.989 39.0292 149.267 39.0292 149.267C38.0725 147.359 33.5282 149.744 33.5282 149.744L33.0499 155.942Z" fill="#2F2E41"/>
<path d="M53.4229 116.129C53.4229 116.129 50.9609 120.721 52.3637 121.023C53.7664 121.325 56.0355 123.276 60.1109 123.665C64.1863 124.053 64.0765 118.908 61.4223 117.605C58.7681 116.303 60.68 110.86 60.68 110.86C60.1483 108.795 55.2019 110.17 55.2019 110.17L53.4229 116.129Z" fill="#2F2E41"/>
<path d="M23.9087 28.0742C24.3042 28.8628 22.5244 38.7192 22.5244 38.7192L24.1065 41.4791C24.1065 41.4791 33.2033 37.9307 31.819 37.3394C30.4347 36.748 30.6324 29.4542 30.6324 29.4542C30.6324 29.4542 23.5132 27.2857 23.9087 28.0742Z" fill="#FFB9B9"/>
<path d="M27.3322 31.1125C34.0288 31.1125 39.4574 25.7011 39.4574 19.0257C39.4574 12.3504 34.0288 6.93896 27.3322 6.93896C20.6357 6.93896 15.207 12.3504 15.207 19.0257C15.207 25.7011 20.6357 31.1125 27.3322 31.1125Z" fill="#2F2E41"/>
<path d="M26.4968 12.7119C29.2678 12.7119 31.5141 10.4727 31.5141 7.71052C31.5141 4.94832 29.2678 2.70911 26.4968 2.70911C23.7258 2.70911 21.4795 4.94832 21.4795 7.71052C21.4795 10.4727 23.7258 12.7119 26.4968 12.7119Z" fill="#2F2E41"/>
<path d="M28.6914 9.97581C28.865 9.99378 29.0395 10.0028 29.2141 10.0029C29.8729 10.0029 30.5254 9.87349 31.1341 9.62214C31.7428 9.3708 32.2959 9.00239 32.7618 8.53797C33.2277 8.07354 33.5973 7.52219 33.8495 6.91539C34.1016 6.30859 34.2314 5.65822 34.2314 5.00142C34.2314 4.34463 34.1016 3.69426 33.8495 3.08746C33.5973 2.48066 33.2277 1.92931 32.7618 1.46488C32.2959 1.00046 31.7428 0.632056 31.1341 0.380711C30.5254 0.129366 29.8729 -1.95741e-08 29.2141 0C29.0395 4.47522e-05 28.865 0.00907004 28.6914 0.0270407C29.9249 0.155864 31.0667 0.73549 31.8968 1.65409C32.7268 2.57268 33.1861 3.76515 33.1861 5.00142C33.1861 6.2377 32.7268 7.43017 31.8968 8.34877C31.0667 9.26736 29.9249 9.84699 28.6914 9.97581Z" fill="#2F2E41"/>
<path d="M27.6661 33.1996C32.2533 33.1996 35.9719 29.4928 35.9719 24.9202C35.9719 20.3476 32.2533 16.6407 27.6661 16.6407C23.079 16.6407 19.3604 20.3476 19.3604 24.9202C19.3604 29.4928 23.079 33.1996 27.6661 33.1996Z" fill="#FFB9B9"/>
<path d="M15.7017 37.635C13.1309 38.2264 8.78027 44.5346 8.78027 44.5346L15.7017 51.4341C15.7017 51.4341 20.6456 69.9643 21.2389 70.7528C25.1256 75.9187 42.5966 64.4447 42.5966 64.4447C42.5966 64.4447 41.9044 58.8265 42.3 56.0667C42.6804 53.4124 40.8168 48.0829 40.8168 48.0829C40.8168 48.0829 47.3428 45.3231 45.9585 42.5633C44.5742 39.8035 36.0707 33.4953 32.511 35.6637C28.9514 37.8322 21.8322 35.6637 21.8322 35.6637C21.8322 35.6637 18.2726 37.0436 15.7017 37.635Z" fill="#E6E6E6"/>
<path d="M66.2285 77.3567C66.2285 77.3567 77.5006 87.016 80.2692 85.0447C83.0378 83.0734 69.5904 76.1739 69.5904 76.1739L66.2285 77.3567Z" fill="#FFB9B9"/>
<path d="M15.6025 74.0055C17.1846 75.7796 24.6993 71.2457 23.7359 69.2321C22.7725 67.2186 16.7891 71.2457 16.7891 71.2457C16.7891 71.2457 14.0205 72.2313 15.6025 74.0055Z" fill="#FFB9B9"/>
<path d="M15.7017 47.2944L7.39598 62.6705C7.39598 62.6705 16.8883 70.5557 18.0748 70.7528C19.2613 70.9499 15.7017 76.0753 15.7017 76.0753C15.7017 76.0753 5.02289 68.5844 0.870015 64.8389C-3.28287 61.0935 8.78027 44.5346 8.78027 44.5346L12.3399 42.3661L15.7017 47.2944Z" fill="#E6E6E6"/>
<path d="M39.8281 46.703L49.5182 61.6849C49.5182 61.6849 64.3499 78.2438 66.3275 79.0323C68.305 79.8208 70.6781 76.0753 70.6781 76.0753L52.88 54.5882L46.1563 42.5633L43.5855 41.5776L39.8281 46.703Z" fill="#E6E6E6"/>
<path d="M27.3329 20.0845C31.9512 20.0845 35.6951 17.8453 35.6951 15.0831C35.6951 12.3209 31.9512 10.0817 27.3329 10.0817C22.7146 10.0817 18.9707 12.3209 18.9707 15.0831C18.9707 17.8453 22.7146 20.0845 27.3329 20.0845Z" fill="#2F2E41"/>
<path d="M50.7916 122.994C50.5175 122.995 50.2547 123.103 50.0609 123.297C49.8671 123.49 49.7581 123.752 49.7578 124.025V159.171C49.7581 159.444 49.8671 159.706 50.0609 159.899C50.2547 160.092 50.5175 160.201 50.7916 160.201H171.014C171.288 160.201 171.55 160.092 171.744 159.899C171.938 159.706 172.047 159.444 172.047 159.171V124.025C172.047 123.752 171.938 123.49 171.744 123.297C171.55 123.103 171.288 122.995 171.014 122.994L50.7916 122.994Z" fill="#E6E6E6"/>
<path d="M52.3477 157.619H169.456V125.577H52.3477V157.619Z" fill="white"/>
<path d="M154.674 150.972C154.449 150.971 154.226 151.015 154.018 151.101C153.81 151.187 153.621 151.312 153.462 151.471C153.303 151.629 153.177 151.818 153.091 152.025C153.004 152.232 152.96 152.454 152.96 152.678C152.96 152.903 153.004 153.125 153.091 153.332C153.177 153.539 153.303 153.728 153.462 153.886C153.621 154.045 153.81 154.17 154.018 154.256C154.226 154.342 154.449 154.386 154.674 154.385H161.524C161.978 154.385 162.413 154.206 162.735 153.885C163.056 153.565 163.236 153.131 163.236 152.678C163.236 152.226 163.056 151.792 162.735 151.472C162.413 151.151 161.978 150.972 161.524 150.972H154.674Z" fill="#3E57FE"/>
<path d="M163.236 147.661H84.168V148.11H163.236V147.661Z" fill="#E6E6E6"/>
<path d="M67.6988 151.656C73.2392 151.656 77.7306 147.179 77.7306 141.656C77.7306 136.133 73.2392 131.656 67.6988 131.656C62.1584 131.656 57.667 136.133 57.667 141.656C57.667 147.179 62.1584 151.656 67.6988 151.656Z" fill="#3E57FE"/>
<path d="M84.2937 145.153L84.0439 144.779L92.2602 139.319L97.8943 142.015L105.998 136.854L122.119 143.709L134.957 137.422L147.423 142.46L163.087 128.63L163.386 128.967L147.513 142.981L134.975 137.914L122.132 144.202L106.04 137.36L97.9257 142.528L92.2966 139.835L84.2937 145.153Z" fill="#3F3D56"/>
<path d="M85.6331 151.206C85.4407 151.206 85.25 151.244 85.0722 151.317C84.8943 151.39 84.7327 151.498 84.5965 151.633C84.4604 151.769 84.3523 151.93 84.2786 152.107C84.2049 152.284 84.167 152.474 84.167 152.666C84.167 152.858 84.2049 153.048 84.2786 153.225C84.3523 153.402 84.4604 153.563 84.5965 153.699C84.7327 153.834 84.8943 153.942 85.0722 154.015C85.25 154.088 85.4407 154.126 85.6331 154.126H100.951C101.339 154.125 101.711 153.971 101.985 153.697C102.259 153.424 102.413 153.053 102.413 152.666C102.413 152.279 102.259 151.908 101.985 151.635C101.711 151.361 101.339 151.207 100.951 151.206H85.6331Z" fill="#E6E6E6"/>
<path d="M66.4458 10.419C66.1718 10.4193 65.909 10.528 65.7152 10.7212C65.5214 10.9143 65.4124 11.1763 65.4121 11.4495V46.5953C65.4124 46.8685 65.5214 47.1304 65.7152 47.3236C65.909 47.5168 66.1718 47.6254 66.4458 47.6258H186.668C186.942 47.6254 187.205 47.5168 187.399 47.3236C187.592 47.1304 187.701 46.8685 187.702 46.5953V11.4495C187.701 11.1763 187.592 10.9143 187.399 10.7212C187.205 10.528 186.942 10.4193 186.668 10.419L66.4458 10.419Z" fill="#E6E6E6"/>
<path d="M68.0029 45.0435H185.111V13.0013H68.0029V45.0435Z" fill="white"/>
<path d="M170.33 38.3962C169.875 38.3962 169.44 38.576 169.119 38.8961C168.798 39.2162 168.617 39.6504 168.617 40.1031C168.617 40.5558 168.798 40.99 169.119 41.3101C169.44 41.6302 169.875 41.81 170.33 41.81H177.179C177.633 41.81 178.069 41.6302 178.39 41.3101C178.711 40.99 178.891 40.5558 178.891 40.1031C178.891 39.6504 178.711 39.2162 178.39 38.8961C178.069 38.576 177.633 38.3962 177.179 38.3962H170.33Z" fill="#3E57FE"/>
<path d="M178.891 35.0853H99.8232V35.5344H178.891V35.0853Z" fill="#E6E6E6"/>
<path d="M83.2958 38.9643C88.804 38.9643 93.2693 34.5132 93.2693 29.0224C93.2693 23.5316 88.804 19.0805 83.2958 19.0805C77.7876 19.0805 73.3223 23.5316 73.3223 29.0224C73.3223 34.5132 77.7876 38.9643 83.2958 38.9643Z" fill="#3E57FE"/>
<path d="M99.948 32.5774L99.6982 32.2037L107.914 26.7435L113.549 29.4395L121.653 24.2783L121.762 24.3247L137.774 31.1333L150.612 24.8469L163.078 29.8848L178.742 16.0547L179.04 16.3909L163.167 30.4056L150.629 25.3386L137.787 31.6271L121.695 24.7844L113.58 29.9526L107.951 27.259L99.948 32.5774Z" fill="#3F3D56"/>
<path d="M101.288 38.631C100.9 38.6315 100.528 38.7855 100.253 39.0592C99.9792 39.3328 99.8252 39.7038 99.8252 40.0906C99.8252 40.4774 99.9792 40.8483 100.253 41.122C100.528 41.3957 100.9 41.5497 101.288 41.5502H116.606C116.994 41.5502 117.366 41.3964 117.641 41.1226C117.916 40.8489 118.07 40.4777 118.07 40.0906C118.07 39.7035 117.916 39.3322 117.641 39.0585C117.366 38.7848 116.994 38.631 116.606 38.631H101.288Z" fill="#E6E6E6"/>
<path d="M85.807 26.9966H78.292L80.1932 25.1009H87.7082L85.807 26.9966ZM85.807 32.8991H78.292L80.1932 31.0044H87.7082L85.807 32.8991ZM80.1932 29.9478H87.7082L85.807 28.0522H78.292" fill="white"/>
<path d="M113.744 66.7067C113.47 66.707 113.207 66.8157 113.013 67.0089C112.819 67.202 112.71 67.464 112.71 67.7372V102.883C112.71 103.156 112.819 103.418 113.013 103.611C113.207 103.804 113.47 103.913 113.744 103.913H233.966C234.24 103.913 234.503 103.804 234.696 103.611C234.89 103.418 234.999 103.156 235 102.883V67.7372C234.999 67.464 234.89 67.202 234.696 67.0089C234.503 66.8157 234.24 66.707 233.966 66.7067L113.744 66.7067Z" fill="#E6E6E6"/>
<path d="M115.301 101.331H232.409V69.289H115.301V101.331Z" fill="white"/>
<path d="M217.627 94.6839C217.173 94.6839 216.738 94.8637 216.417 95.1838C216.095 95.5039 215.915 95.9381 215.915 96.3908C215.915 96.8435 216.095 97.2777 216.417 97.5978C216.738 97.9179 217.173 98.0977 217.627 98.0977H224.477C224.931 98.0977 225.366 97.9179 225.688 97.5978C226.009 97.2777 226.189 96.8435 226.189 96.3908C226.189 95.9381 226.009 95.5039 225.688 95.1838C225.366 94.8637 224.931 94.6839 224.477 94.6839H217.627Z" fill="#3E57FE"/>
<path d="M226.189 91.373H147.121V91.8221H226.189V91.373Z" fill="#E6E6E6"/>
<path d="M130.594 95.252C136.102 95.252 140.567 90.8009 140.567 85.3101C140.567 79.8193 136.102 75.3681 130.594 75.3681C125.085 75.3681 120.62 79.8193 120.62 85.3101C120.62 90.8009 125.085 95.252 130.594 95.252Z" fill="#3E57FE"/>
<path d="M147.246 88.8652L146.996 88.4915L155.212 83.0313L160.847 85.7273L168.951 80.5661L169.06 80.6125L185.072 87.4211L197.91 81.1347L210.376 86.1724L226.04 72.3425L226.339 72.679L210.465 86.6934L197.927 81.6264L185.085 87.9149L168.993 81.0722L160.878 86.2404L155.249 83.5471L147.246 88.8652Z" fill="#3F3D56"/>
<path d="M148.585 94.9187C148.197 94.9187 147.825 95.0725 147.55 95.3462C147.275 95.6199 147.121 95.9912 147.121 96.3783C147.121 96.7654 147.275 97.1366 147.55 97.4104C147.825 97.6841 148.197 97.8379 148.585 97.8379H163.903C164.292 97.8379 164.664 97.6841 164.939 97.4104C165.213 97.1366 165.368 96.7654 165.368 96.3783C165.368 95.9912 165.213 95.6199 164.939 95.3462C164.664 95.0725 164.292 94.9187 163.903 94.9187H148.585Z" fill="#E6E6E6"/>
<path d="M130.593 91.8625L134.63 86.1945L130.593 88.5708L126.558 86.1945L130.592 91.8625H130.593Z" fill="white"/>
<path d="M130.592 87.8092H130.593L134.628 85.4317L130.593 78.7577H130.592L126.558 85.4317L130.592 87.8092Z" fill="white"/>
<path d="M67.9994 143.069C68.5897 143.069 69.0682 142.59 69.0682 142C69.0682 141.41 68.5897 140.931 67.9994 140.931C67.4092 140.931 66.9307 141.41 66.9307 142C66.9307 142.59 67.4092 143.069 67.9994 143.069Z" fill="white"/>
<path d="M72.059 140.238C71.8527 140.163 71.6371 140.088 71.4121 140.022C71.4684 139.797 71.5152 139.572 71.5527 139.356C71.7496 138.119 71.534 137.247 70.934 136.909C70.7559 136.806 70.559 136.759 70.334 136.759C69.6777 136.759 68.8434 137.247 67.9996 138.063C67.1559 137.247 66.3215 136.759 65.6652 136.759C65.4402 136.759 65.2434 136.806 65.0652 136.909C64.4652 137.256 64.2496 138.128 64.4465 139.356C64.484 139.572 64.5309 139.797 64.5871 140.022C64.3621 140.088 64.1465 140.153 63.9402 140.238C62.7684 140.688 62.1309 141.306 62.1309 142C62.1309 142.694 62.7777 143.313 63.9402 143.763C64.1465 143.838 64.3621 143.913 64.5871 143.978C64.5309 144.203 64.484 144.428 64.4465 144.644C64.2496 145.881 64.4652 146.753 65.0652 147.091C65.2434 147.194 65.4402 147.241 65.6652 147.241C66.3309 147.241 67.1652 146.753 67.9996 145.938C68.8434 146.753 69.6777 147.241 70.334 147.241C70.559 147.241 70.7559 147.194 70.934 147.091C71.534 146.744 71.7496 145.872 71.5527 144.644C71.5152 144.428 71.4684 144.203 71.4121 143.978C71.6371 143.913 71.8527 143.847 72.059 143.763C73.2309 143.313 73.8684 142.694 73.8684 142C73.8684 141.306 73.2309 140.688 72.059 140.238ZM70.6715 137.378C71.0559 137.603 71.1871 138.297 71.0277 139.281C70.9996 139.478 70.9527 139.684 70.8965 139.9C70.409 139.788 69.8934 139.713 69.3496 139.666C69.0309 139.216 68.7027 138.813 68.3746 138.447C69.0684 137.763 69.7715 137.294 70.3434 137.294C70.4652 137.294 70.5777 137.322 70.6715 137.378ZM69.6215 142.938C69.4527 143.238 69.2559 143.538 69.0496 143.838C68.7027 143.866 68.3559 143.875 67.9996 143.875C67.634 143.875 67.2871 143.866 66.9496 143.838C66.7434 143.538 66.5559 143.238 66.3871 142.938C66.209 142.628 66.0402 142.309 65.8902 142C66.0402 141.691 66.209 141.372 66.3871 141.063C66.5559 140.763 66.7527 140.463 66.959 140.163C67.3059 140.134 67.6527 140.125 68.009 140.125C68.3746 140.125 68.7215 140.134 69.059 140.163C69.2652 140.463 69.4527 140.763 69.6215 141.063C69.7996 141.372 69.9684 141.691 70.1184 142C69.959 142.309 69.7996 142.619 69.6215 142.938ZM70.3996 142.628C70.5402 142.956 70.6527 143.275 70.7559 143.594C70.4371 143.669 70.0996 143.725 69.7434 143.772C69.8559 143.594 69.9777 143.406 70.0809 143.209C70.1934 143.013 70.2965 142.816 70.3996 142.628ZM67.9996 145.169C67.7746 144.925 67.559 144.663 67.3527 144.391C67.5684 144.4 67.784 144.409 67.9996 144.409C68.2152 144.409 68.4309 144.4 68.6465 144.391C68.4402 144.663 68.2246 144.925 67.9996 145.169ZM66.2559 143.763C65.8996 143.716 65.5621 143.659 65.2434 143.584C65.3465 143.275 65.459 142.947 65.5996 142.619C65.7027 142.806 65.8059 143.003 65.9184 143.191C66.0309 143.397 66.1434 143.575 66.2559 143.763ZM65.5996 141.372C65.459 141.044 65.3465 140.725 65.2434 140.406C65.5621 140.331 65.8996 140.275 66.2559 140.228C66.1434 140.406 66.0215 140.594 65.9184 140.791C65.8059 140.988 65.7027 141.184 65.5996 141.372ZM67.9996 138.831C68.2246 139.075 68.4402 139.338 68.6465 139.609C68.4309 139.6 68.2152 139.591 67.9996 139.591C67.784 139.591 67.5684 139.6 67.3527 139.609C67.559 139.338 67.7746 139.075 67.9996 138.831ZM70.0809 140.8L69.7434 140.238C70.0996 140.284 70.4371 140.341 70.7559 140.416C70.6527 140.725 70.5402 141.053 70.3996 141.381C70.2965 141.184 70.1934 140.988 70.0809 140.8ZM64.9715 139.281C64.8121 138.297 64.9434 137.603 65.3277 137.378C65.4215 137.322 65.534 137.294 65.6559 137.294C66.2184 137.294 66.9215 137.753 67.6246 138.447C67.2965 138.803 66.9684 139.216 66.6496 139.666C66.1059 139.713 65.5902 139.797 65.1027 139.9C65.0465 139.684 65.009 139.478 64.9715 139.281ZM62.6559 142C62.6559 141.559 63.1902 141.091 64.1277 140.744C64.3152 140.669 64.5215 140.603 64.7277 140.547C64.8777 141.016 65.0652 141.513 65.2902 142.009C65.0652 142.506 64.8684 142.994 64.7277 143.463C63.434 143.088 62.6559 142.525 62.6559 142ZM65.3277 146.622C64.9434 146.397 64.8121 145.703 64.9715 144.719C64.9996 144.522 65.0465 144.316 65.1027 144.1C65.5902 144.213 66.1059 144.288 66.6496 144.334C66.9684 144.784 67.2965 145.188 67.6246 145.553C66.9309 146.238 66.2277 146.706 65.6559 146.706C65.534 146.706 65.4215 146.678 65.3277 146.622ZM71.0277 144.719C71.1871 145.703 71.0559 146.397 70.6715 146.622C70.5777 146.678 70.4652 146.706 70.3434 146.706C69.7809 146.706 69.0777 146.247 68.3746 145.553C68.7027 145.197 69.0309 144.784 69.3496 144.334C69.8934 144.288 70.409 144.203 70.8965 144.1C70.9527 144.316 70.9902 144.522 71.0277 144.719ZM71.8715 143.256C71.684 143.331 71.4777 143.397 71.2715 143.453C71.1215 142.984 70.934 142.488 70.709 141.991C70.934 141.494 71.1309 141.006 71.2715 140.538C72.5652 140.913 73.3434 141.475 73.3434 142C73.3434 142.441 72.7996 142.909 71.8715 143.256Z" fill="white"/>
</g>
<defs>
<clipPath id="clip0_308_655">
<rect width="235" height="162" fill="white"/>
</clipPath>
</defs>
</svg>
