<svg width="48" height="49" viewBox="0 0 48 49" fill="none" xmlns="http://www.w3.org/2000/svg">
<g clip-path="url(#clip0_282_367)">
<path d="M48 24.5C48 11.2452 37.2548 0.5 24 0.5C10.7452 0.5 0 11.2452 0 24.5C0 37.7548 10.7452 48.5 24 48.5C37.2548 48.5 48 37.7548 48 24.5Z" fill="#5B65EA"/>
<path d="M36.0367 16.2798C33.8349 14.5183 31.1927 13.6376 28.4037 13.4908L27.9633 13.9312C30.4587 14.5183 32.6606 15.6926 34.7156 17.3073C32.2202 15.9862 29.4312 15.1055 26.4954 14.8119C25.6147 14.6651 24.8807 14.6651 24 14.6651C23.1193 14.6651 22.3853 14.6651 21.5046 14.8119C18.5688 15.1055 15.7798 15.9862 13.2844 17.3073C15.3394 15.6926 17.5413 14.5183 20.0367 13.9312L19.5963 13.4908C16.8073 13.6376 14.1651 14.5183 11.9633 16.2798C9.46789 20.9771 8.14679 26.2615 8 31.6926C10.2018 34.0413 13.2844 35.5092 16.5138 35.5092C16.5138 35.5092 17.5413 34.3349 18.2752 33.3073C16.367 32.867 14.6055 31.8394 13.4312 30.2248C14.4587 30.8119 15.4862 31.3991 16.5138 31.8394C17.8349 32.4266 19.156 32.7202 20.4771 33.0138C21.6514 33.1605 22.8257 33.3073 24 33.3073C25.1743 33.3073 26.3486 33.1605 27.5229 33.0138C28.844 32.7202 30.1651 32.4266 31.4862 31.8394C32.5138 31.3991 33.5413 30.8119 34.5688 30.2248C33.3945 31.8394 31.633 32.867 29.7248 33.3073C30.4587 34.3349 31.4862 35.5092 31.4862 35.5092C34.7156 35.5092 37.7982 34.0413 40 31.6926C39.8532 26.2615 38.5321 20.9771 36.0367 16.2798ZM19.156 29.0504C17.6881 29.0504 16.367 27.7293 16.367 26.1147C16.367 24.5 17.6881 23.1789 19.156 23.1789C20.6239 23.1789 21.945 24.5 21.945 26.1147C21.945 27.7293 20.6239 29.0504 19.156 29.0504ZM28.844 29.0504C27.3761 29.0504 26.055 27.7293 26.055 26.1147C26.055 24.5 27.3761 23.1789 28.844 23.1789C30.3119 23.1789 31.633 24.5 31.633 26.1147C31.633 27.7293 30.3119 29.0504 28.844 29.0504Z" fill="white"/>
</g>
<defs>
<clipPath id="clip0_282_367">
<rect width="48" height="48" fill="white" transform="translate(0 0.5)"/>
</clipPath>
</defs>
</svg>
