<svg width="20" height="14" viewBox="0 0 20 14" fill="none" xmlns="http://www.w3.org/2000/svg">
<path d="M17.0217 2.20492C15.7374 1.17738 14.1961 0.663636 12.5692 0.578003L12.3123 0.834903C13.7679 1.17738 15.0523 1.86239 16.2511 2.80429C14.7954 2.03365 13.1685 1.51991 11.456 1.34864C10.9422 1.26301 10.5141 1.26301 10.0003 1.26301C9.48658 1.26301 9.05842 1.26301 8.54468 1.34864C6.83213 1.51991 5.20521 2.03365 3.74956 2.80429C4.94831 1.86239 6.23275 1.17738 7.6884 0.834903L7.4315 0.578003C5.80458 0.663636 4.2633 1.17738 2.97892 2.20492C1.52326 4.94501 0.75262 8.02758 0.666992 11.1957C1.95138 12.5658 3.74956 13.4221 5.63338 13.4221C5.63338 13.4221 6.23275 12.7371 6.66086 12.1376C5.54774 11.8808 4.5202 11.2814 3.83519 10.3395C4.43457 10.682 5.03394 11.0245 5.63338 11.2814C6.40402 11.6239 7.17466 11.7952 7.9453 11.9664C8.63031 12.052 9.31532 12.1376 10.0003 12.1376C10.6853 12.1376 11.3703 12.052 12.0554 11.9664C12.826 11.7952 13.5966 11.6239 14.3673 11.2814C14.9667 11.0245 15.5661 10.682 16.1655 10.3395C15.4805 11.2814 14.4529 11.8808 13.3398 12.1376C13.7679 12.7371 14.3673 13.4221 14.3673 13.4221C16.2511 13.4221 18.0493 12.5658 19.3337 11.1957C19.248 8.02758 18.4774 4.94501 17.0217 2.20492ZM7.17466 9.65444C6.31838 9.65444 5.54774 8.88379 5.54774 7.94194C5.54774 7.00004 6.31838 6.22939 7.17466 6.22939C8.03093 6.22939 8.80158 7.00004 8.80158 7.94194C8.80158 8.88379 8.03093 9.65444 7.17466 9.65444ZM12.826 9.65444C11.9697 9.65444 11.1991 8.88379 11.1991 7.94194C11.1991 7.00004 11.9697 6.22939 12.826 6.22939C13.6823 6.22939 14.4529 7.00004 14.4529 7.94194C14.4529 8.88379 13.6823 9.65444 12.826 9.65444Z" fill="#3E57FE"/>
</svg>
