<svg width="194" height="86" viewBox="0 0 194 86" fill="none" xmlns="http://www.w3.org/2000/svg">
<g clip-path="url(#clip0_308_731)">
<path d="M82.5897 54.9423H3.99622C2.93672 54.9412 1.92096 54.5204 1.17178 53.7724C0.422601 53.0243 0.00118922 52.0102 0 50.9523V3.03856C0.000893029 2.23297 0.321793 1.46064 0.892299 0.890996C1.4628 0.321352 2.23632 0.000919668 3.04315 0H83.4976C84.3164 0.000920808 85.1014 0.326101 85.6804 0.904196C86.2593 1.48229 86.585 2.26609 86.5859 3.08363V50.9523C86.5847 52.0102 86.1633 53.0243 85.4141 53.7724C84.6649 54.5204 83.6492 54.9412 82.5897 54.9423Z" fill="white"/>
<path d="M82.5897 54.9423H3.99622C2.93672 54.9412 1.92096 54.5204 1.17178 53.7724C0.422601 53.0243 0.00118922 52.0102 0 50.9523V3.03856C0.000893029 2.23297 0.321793 1.46064 0.892299 0.890996C1.4628 0.321352 2.23632 0.000919668 3.04315 0H83.4976C84.3164 0.000920808 85.1014 0.326101 85.6804 0.904196C86.2593 1.48229 86.585 2.26609 86.5859 3.08363V50.9523C86.5847 52.0102 86.1633 53.0243 85.4141 53.7724C84.6649 54.5204 83.6492 54.9412 82.5897 54.9423ZM3.04315 0.862713C2.46541 0.863388 1.91152 1.09285 1.503 1.50076C1.09449 1.90866 0.864696 2.4617 0.864048 3.03856V50.9523C0.864993 51.7814 1.19529 52.5763 1.78248 53.1626C2.36968 53.7489 3.16581 54.0787 3.99622 54.0796H82.5897C83.4201 54.0787 84.2162 53.7489 84.8034 53.1626C85.3906 52.5763 85.7209 51.7814 85.7219 50.9523V3.08363C85.7212 2.49481 85.4867 1.93029 85.0697 1.51393C84.6527 1.09757 84.0873 0.863372 83.4976 0.862713H3.04315Z" fill="#E6E6E6"/>
<path d="M35.8819 42.8113H12.3322C11.7561 42.8104 11.1998 42.6009 10.7666 42.2216C10.3334 41.8423 10.0527 41.319 9.97662 40.7487C9.96231 40.6461 9.95545 40.5425 9.9561 40.4388V14.5035C9.95681 13.8745 10.2074 13.2715 10.6528 12.8267C11.0983 12.3819 11.7023 12.1318 12.3322 12.131H35.8819C36.5118 12.1318 37.1158 12.3819 37.5613 12.8267C38.0067 13.2715 38.2573 13.8745 38.258 14.5035V40.4388C38.2573 41.0678 38.0067 41.6708 37.5613 42.1156C37.1158 42.5604 36.5118 42.8106 35.8819 42.8113ZM12.3322 13.4251C12.0459 13.4254 11.7714 13.5392 11.5689 13.7413C11.3664 13.9435 11.2525 14.2176 11.2522 14.5035V40.4388C11.2517 40.4831 11.2545 40.5275 11.2604 40.5714C11.2935 40.8322 11.4205 41.072 11.6178 41.246C11.815 41.4201 12.069 41.5165 12.3322 41.5172H35.8819C36.1682 41.5169 36.4427 41.4032 36.6452 41.201C36.8477 40.9988 36.9616 40.7247 36.9619 40.4388V14.5035C36.9616 14.2176 36.8477 13.9435 36.6452 13.7413C36.4427 13.5392 36.1682 13.4254 35.8819 13.4251H12.3322Z" fill="#E6E6E6"/>
<path d="M74.9018 34.3782H46.3883C45.9299 34.3782 45.4904 34.1964 45.1663 33.8729C44.8422 33.5493 44.6602 33.1104 44.6602 32.6528C44.6602 32.1952 44.8422 31.7563 45.1663 31.4327C45.4904 31.1092 45.9299 30.9274 46.3883 30.9274H74.9018C75.3602 30.9274 75.7997 31.1092 76.1238 31.4327C76.4479 31.7563 76.6299 32.1952 76.6299 32.6528C76.6299 33.1104 76.4479 33.5493 76.1238 33.8729C75.7997 34.1964 75.3602 34.3782 74.9018 34.3782Z" fill="#E6E6E6"/>
<path d="M61.9411 27.0452H46.3883C45.9299 27.0452 45.4904 26.8634 45.1663 26.5398C44.8422 26.2162 44.6602 25.7774 44.6602 25.3197C44.6602 24.8621 44.8422 24.4233 45.1663 24.0997C45.4904 23.7761 45.9299 23.5943 46.3883 23.5943H61.9411C62.3994 23.5943 62.839 23.7761 63.1631 24.0997C63.4871 24.4233 63.6692 24.8621 63.6692 25.3197C63.6692 25.7774 63.4871 26.2162 63.1631 26.5398C62.839 26.8634 62.3994 27.0452 61.9411 27.0452Z" fill="#E6E6E6"/>
<path d="M31.8724 26.7583C31.8724 30.57 28.3424 29.9935 23.988 29.9935C19.6335 29.9935 16.1035 30.57 16.1035 26.7583C16.1035 22.9466 17.8278 16.1901 23.988 16.1901C30.3603 16.1901 31.8724 22.9466 31.8724 26.7583Z" fill="#2F2E41"/>
<path d="M32.1909 33.1734C32.0388 32.7352 31.7356 32.3652 31.3355 32.1295C31.2582 32.0822 31.1773 32.0411 31.0935 32.0066C30.7426 31.8609 30.3568 31.8205 29.9832 31.8902C29.6096 31.9599 29.2645 32.1368 28.99 32.3992C28.7155 32.6616 28.5235 32.9982 28.4375 33.3678C28.3515 33.7374 28.3752 34.1241 28.5057 34.4804L31.6465 41.6086H35.7831L32.1909 33.1734Z" fill="#3F3D56"/>
<path d="M18.485 33.5616C18.2368 33.4419 17.966 33.3758 17.6904 33.3679C17.4148 33.36 17.1406 33.4103 16.8858 33.5156C16.6311 33.6209 16.4015 33.7788 16.2121 33.9789C16.0228 34.179 15.8779 34.4168 15.7871 34.6767L12.8623 41.546C13.0121 41.5878 13.1669 41.6088 13.3224 41.6086H16.9925L19.4722 35.9837C19.6376 35.5296 19.6282 35.0304 19.4458 34.5829C19.2634 34.1353 18.921 33.7714 18.485 33.5616Z" fill="#3F3D56"/>
<path d="M23.9617 29.9872C26.8919 29.9872 29.2672 27.6155 29.2672 24.6899C29.2672 21.7643 26.8919 19.3926 23.9617 19.3926C21.0316 19.3926 18.6562 21.7643 18.6562 24.6899C18.6562 27.6155 21.0316 29.9872 23.9617 29.9872Z" fill="#FFB8B8"/>
<path d="M31.4281 32.2136C31.398 32.1856 31.3677 32.1554 31.3353 32.1295C30.9655 31.7966 30.5277 31.5476 30.0523 31.3998C29.5768 31.252 29.0749 31.2088 28.5812 31.2733L18.8044 32.5091C17.9088 32.6197 17.0916 33.0744 16.5262 33.7766C15.9608 34.4789 15.6917 35.3735 15.7759 36.2706C15.9099 37.776 16.1259 39.6761 16.4715 41.6086H31.9164L32.4845 35.0175C32.5302 34.5009 32.459 33.9808 32.2761 33.4954C32.0933 33.0101 31.8035 32.572 31.4281 32.2136Z" fill="#3F3D56"/>
<path d="M17.8311 24.1702H19.9295L20.8552 21.5821L21.0403 24.1702H22.0433L22.5833 22.6604L22.6913 24.1702H30.1437C30.1437 22.683 29.552 21.2566 28.4988 20.205C27.4455 19.1534 26.017 18.5626 24.5274 18.5626H23.4474C21.9578 18.5626 20.5293 19.1534 19.476 20.205C18.4228 21.2566 17.8311 22.683 17.8311 24.1702Z" fill="#2F2E41"/>
<path d="M107.414 50.9523V3.08363C107.415 2.26609 107.741 1.48229 108.32 0.904196C108.899 0.326101 109.684 0.000920808 110.502 0H190.957C191.764 0.000919668 192.537 0.321352 193.108 0.890996C193.678 1.46064 193.999 2.23297 194 3.03856V50.9523C193.999 52.0102 193.577 53.0243 192.828 53.7724C192.079 54.5204 191.063 54.9412 190.004 54.9423H111.41C110.351 54.9412 109.335 54.5204 108.586 53.7724C107.837 53.0243 107.415 52.0102 107.414 50.9523Z" fill="white"/>
<path d="M107.414 50.9523V3.08363C107.415 2.26609 107.741 1.48229 108.32 0.904196C108.899 0.326101 109.684 0.000920808 110.502 0H190.957C191.764 0.000919668 192.537 0.321352 193.108 0.890996C193.678 1.46064 193.999 2.23297 194 3.03856V50.9523C193.999 52.0102 193.577 53.0243 192.828 53.7724C192.079 54.5204 191.063 54.9412 190.004 54.9423H111.41C110.351 54.9412 109.335 54.5204 108.586 53.7724C107.837 53.0243 107.415 52.0102 107.414 50.9523ZM110.502 0.862713C109.913 0.863372 109.347 1.09757 108.93 1.51393C108.513 1.93029 108.279 2.49481 108.278 3.08363V50.9523C108.279 51.7814 108.609 52.5763 109.197 53.1626C109.784 53.7489 110.58 54.0787 111.41 54.0796H190.004C190.834 54.0787 191.63 53.7489 192.217 53.1626C192.805 52.5763 193.135 51.7814 193.136 50.9523V3.03856C193.135 2.4617 192.905 1.90866 192.497 1.50076C192.088 1.09285 191.535 0.863388 190.957 0.862713H110.502Z" fill="#E6E6E6"/>
<path d="M155.742 40.4388V14.5035C155.743 13.8745 155.993 13.2715 156.439 12.8267C156.884 12.3819 157.488 12.1318 158.118 12.131H181.668C182.298 12.1318 182.902 12.3819 183.347 12.8267C183.793 13.2715 184.043 13.8745 184.044 14.5035V40.4388C184.045 40.5425 184.038 40.6461 184.024 40.7487C183.947 41.319 183.667 41.8423 183.234 42.2216C182.8 42.6009 182.244 42.8104 181.668 42.8113H158.118C157.488 42.8106 156.884 42.5604 156.439 42.1156C155.993 41.6708 155.743 41.0678 155.742 40.4388ZM158.118 13.4251C157.832 13.4254 157.557 13.5392 157.355 13.7413C157.152 13.9435 157.039 14.2176 157.038 14.5035V40.4388C157.039 40.7247 157.152 40.9988 157.355 41.201C157.557 41.4032 157.832 41.5169 158.118 41.5172H181.668C181.931 41.5165 182.185 41.4201 182.382 41.246C182.58 41.072 182.707 40.8322 182.74 40.5714C182.746 40.5275 182.748 40.4831 182.748 40.4388V14.5035C182.748 14.2176 182.634 13.9435 182.431 13.7413C182.229 13.5392 181.954 13.4254 181.668 13.4251H158.118Z" fill="#E6E6E6"/>
<path d="M117.37 32.6528C117.371 32.1953 117.553 31.7568 117.877 31.4333C118.201 31.1098 118.64 30.9279 119.098 30.9274H147.612C148.07 30.9274 148.51 31.1092 148.834 31.4327C149.158 31.7563 149.34 32.1952 149.34 32.6528C149.34 33.1104 149.158 33.5493 148.834 33.8729C148.51 34.1964 148.07 34.3782 147.612 34.3782H119.098C118.64 34.3777 118.201 34.1957 117.877 33.8723C117.553 33.5488 117.371 33.1102 117.37 32.6528Z" fill="#E6E6E6"/>
<path d="M117.37 25.3197C117.371 24.8623 117.553 24.4237 117.877 24.1003C118.201 23.7768 118.64 23.5948 119.098 23.5943H134.651C135.109 23.5943 135.549 23.7761 135.873 24.0997C136.197 24.4233 136.379 24.8621 136.379 25.3197C136.379 25.7774 136.197 26.2162 135.873 26.5398C135.549 26.8634 135.109 27.0452 134.651 27.0452H119.098C118.64 27.0446 118.201 26.8627 117.877 26.5392C117.553 26.2158 117.371 25.7772 117.37 25.3197Z" fill="#E6E6E6"/>
<path d="M164.073 22.2096C165.587 25.1825 166.781 28.2486 170.121 28.2486C171.726 28.2486 173.264 27.6124 174.398 26.4799C175.532 25.3473 176.17 23.8113 176.17 22.2096C176.17 20.608 175.532 19.072 174.398 17.9394C173.264 16.8069 171.726 16.1706 170.121 16.1706C166.727 16.1282 161.254 16.6763 164.073 22.2096Z" fill="#2F2E41"/>
<path d="M169.824 28.3662C172.754 28.3662 175.13 25.9946 175.13 23.069C175.13 20.1434 172.754 17.7717 169.824 17.7717C166.894 17.7717 164.519 20.1434 164.519 23.069C164.519 25.9946 166.894 28.3662 169.824 28.3662Z" fill="#A0616A"/>
<path d="M177.067 32.7248C176.725 32.3528 176.352 32.0095 175.954 31.6982C174.213 30.3354 172.03 29.6598 169.822 29.8002C169.733 29.8046 169.644 29.811 169.556 29.8197C168.277 29.9217 167.035 30.2946 165.911 30.9134C164.788 31.5322 163.809 32.3828 163.041 33.4085C162.261 34.45 161.712 35.6458 161.432 36.916C161.152 38.1862 161.146 39.5016 161.417 40.774C161.475 41.0436 161.527 41.3153 161.576 41.5871H179.164L179.367 40.2283C179.57 38.8854 179.469 37.5142 179.071 36.2156C178.673 34.917 177.988 33.7241 177.067 32.7248Z" fill="#3F3D56"/>
<path d="M179.76 34.1418C179.636 33.4331 179.267 32.7903 178.717 32.3252C178.168 31.8602 177.472 31.6024 176.751 31.5968C176.723 31.5968 176.693 31.599 176.665 31.599C176.425 31.6045 176.186 31.6378 175.954 31.6982C175.564 31.8018 175.198 31.9813 174.877 32.2265C174.556 32.4718 174.287 32.7778 174.086 33.1271C173.884 33.4764 173.753 33.8621 173.701 34.262C173.648 34.6619 173.676 35.0682 173.781 35.4575L175.442 41.587H181.033L179.76 34.1418Z" fill="#3F3D56"/>
<path d="M167.459 32.535C167.248 32.1218 166.946 31.7619 166.575 31.4825C166.313 31.2846 166.02 31.1316 165.707 31.0296C165.579 30.986 165.449 30.9514 165.316 30.9261C164.594 30.7896 163.846 30.9154 163.208 31.2808C162.571 31.6462 162.085 32.2272 161.838 32.9189L158.797 41.587H164.569L167.513 35.2116C167.709 34.7909 167.806 34.331 167.797 33.867C167.788 33.4031 167.672 32.9474 167.459 32.535Z" fill="#3F3D56"/>
<path d="M164.193 20.0752C165.406 20.9095 166.845 21.3536 168.317 21.3477C167.792 21.7113 167.194 21.9569 166.565 22.0676C168.522 22.4869 170.546 22.4983 172.508 22.101C172.944 22.0311 173.365 21.8868 173.752 21.6743C173.945 21.5667 174.113 21.4198 174.245 21.2432C174.378 21.0665 174.471 20.864 174.52 20.6488C174.65 19.9051 174.07 19.2293 173.467 18.7739C172.543 18.0873 171.478 17.6142 170.349 17.3889C169.22 17.1637 168.055 17.1918 166.938 17.4713C166.209 17.6595 165.478 17.9775 165.004 18.5623C164.531 19.1471 164.39 20.0487 164.842 20.6509L164.193 20.0752Z" fill="#2F2E41"/>
<path d="M136.297 86H57.7033C56.6438 85.9988 55.628 85.578 54.8788 84.83C54.1296 84.082 53.7082 83.0678 53.707 82.0099V34.0962C53.7079 33.2906 54.0288 32.5183 54.5993 31.9486C55.1698 31.379 55.9434 31.0586 56.7502 31.0576H137.205C138.023 31.0586 138.808 31.3837 139.387 31.9618C139.966 32.5399 140.292 33.3237 140.293 34.1413V82.0099C140.292 83.0678 139.87 84.082 139.121 84.83C138.372 85.578 137.356 85.9988 136.297 86Z" fill="white"/>
<path d="M136.297 86H57.7033C56.6438 85.9988 55.628 85.578 54.8788 84.83C54.1296 84.082 53.7082 83.0678 53.707 82.0099V34.0962C53.7079 33.2906 54.0288 32.5183 54.5993 31.9486C55.1698 31.379 55.9434 31.0586 56.7502 31.0576H137.205C138.023 31.0586 138.808 31.3837 139.387 31.9618C139.966 32.5399 140.292 33.3237 140.293 34.1413V82.0099C140.292 83.0678 139.87 84.082 139.121 84.83C138.372 85.578 137.356 85.9988 136.297 86ZM56.7502 31.9204C56.1724 31.921 55.6185 32.1505 55.21 32.5584C54.8015 32.9663 54.5717 33.5194 54.5711 34.0962V82.0099C54.572 82.8391 54.9023 83.634 55.4895 84.2203C56.0767 84.8065 56.8728 85.1363 57.7033 85.1373H136.297C137.127 85.1363 137.923 84.8065 138.51 84.2203C139.098 83.634 139.428 82.8391 139.429 82.0099V34.1413C139.428 33.5525 139.194 32.9879 138.777 32.5716C138.36 32.1552 137.794 31.921 137.205 31.9204H56.7502Z" fill="#3F3D56"/>
<path d="M89.5889 73.8689H66.0393C65.4631 73.8681 64.9068 73.6586 64.4736 73.2793C64.0404 72.9 63.7597 72.3766 63.6836 71.8064C63.6693 71.7037 63.6625 71.6001 63.6631 71.4965V45.5612C63.6638 44.9322 63.9144 44.3291 64.3599 43.8844C64.8053 43.4396 65.4093 43.1894 66.0393 43.1887H89.5889C90.2189 43.1894 90.8228 43.4396 91.2683 43.8844C91.7137 44.3291 91.9643 44.9322 91.965 45.5612V71.4965C91.9643 72.1255 91.7137 72.7285 91.2683 73.1733C90.8228 73.618 90.2189 73.8682 89.5889 73.8689ZM66.0393 44.4828C65.7529 44.4831 65.4784 44.5968 65.2759 44.799C65.0734 45.0011 64.9595 45.2752 64.9592 45.5612V71.4965C64.9587 71.5408 64.9615 71.5851 64.9674 71.629C65.0005 71.8898 65.1275 72.1296 65.3248 72.3037C65.522 72.4777 65.776 72.5741 66.0393 72.5749H89.5889C89.8752 72.5745 90.1498 72.4608 90.3522 72.2586C90.5547 72.0565 90.6686 71.7824 90.669 71.4965V45.5612C90.6686 45.2752 90.5547 45.0011 90.3522 44.799C90.1498 44.5968 89.8752 44.4831 89.5889 44.4828H66.0393Z" fill="#E6E6E6"/>
<path d="M77.4727 47.9301C75.9396 47.2181 74.0574 46.9846 72.4975 47.6463C70.9376 48.308 69.8741 50.004 70.3785 51.505C70.6072 52.1855 71.1281 52.8548 70.9252 53.542C70.769 54.0711 70.2241 54.4203 69.689 54.6687C69.1539 54.917 68.5686 55.1258 68.1816 55.5447C67.7946 55.9635 67.7139 56.6846 68.1973 57.0094C68.3566 57.1164 68.5557 57.1672 68.7101 57.28C68.8417 57.3867 68.9367 57.5319 68.9818 57.6951C69.0269 57.8583 69.0198 58.0316 68.9616 58.1906C68.8329 58.5106 68.6202 58.7901 68.3458 58.9995C67.797 59.4721 67.0717 60.0129 67.2421 60.6837C67.3053 60.863 67.4109 61.0244 67.55 61.1542C67.689 61.2841 67.8573 61.3785 68.0407 61.4295C68.4216 61.5392 68.8167 61.5912 69.213 61.584L85.4066 62.0933C85.9411 62.1334 86.4787 62.1034 87.0054 62.0042C87.2615 61.9575 87.5052 61.8586 87.7212 61.7137C87.9373 61.5688 88.1211 61.381 88.2611 61.1619C88.5712 60.5888 88.3676 59.8828 87.9846 59.3477C87.6017 58.8125 87.0597 58.3903 86.6118 57.8989C86.164 57.4075 85.7976 56.7941 85.8765 56.159C85.9397 55.6505 86.2756 55.2111 86.5166 54.7492C86.7577 54.2872 86.8977 53.7099 86.5855 53.2849C86.1455 52.6861 85.0892 52.7402 84.5889 52.1822C84.2114 51.7611 84.2843 51.1548 84.2468 50.6118C84.1565 49.3055 83.2507 48.0719 81.9613 47.499C81.3057 47.218 80.5925 47.0967 79.8806 47.1451C79.1688 47.1935 78.4786 47.4102 77.8672 47.7774L77.4727 47.9301Z" fill="#2F2E41"/>
<path d="M78.0711 61.968C81.0012 61.968 83.3766 59.5964 83.3766 56.6708C83.3766 53.7451 81.0012 51.3735 78.0711 51.3735C75.141 51.3735 72.7656 53.7451 72.7656 56.6708C72.7656 59.5964 75.141 61.968 78.0711 61.968Z" fill="#A0616A"/>
<path d="M85.0368 68.8091C85.0315 67.8806 84.774 66.9709 84.2916 66.1771C83.8092 65.3832 83.1201 64.735 82.2978 64.3014C82.2309 64.2648 82.1617 64.2324 82.0926 64.2C81.4956 63.9175 80.8492 63.7534 80.1895 63.7169L75.1392 63.4344C74.4259 63.3937 73.712 63.5032 73.0438 63.7558C72.8811 63.8163 72.7218 63.8854 72.5665 63.9628C72.0783 64.2029 71.632 64.5197 71.2444 64.901C70.734 65.4041 70.3347 66.0082 70.0721 66.6746C69.8094 67.341 69.6893 68.0548 69.7194 68.7703L69.8102 70.9076L70.4452 72.5533H84.5659C84.741 72.3414 84.8931 72.1115 85.0195 71.8674C85.2589 71.3937 85.3851 70.8709 85.3881 70.3403C85.3911 69.8096 85.2708 69.2855 85.0368 68.8091Z" fill="#3F3D56"/>
<path d="M84.6916 65.9751C84.4612 65.4759 84.1 65.0482 83.6461 64.7371C83.3186 64.5131 82.9513 64.3535 82.5639 64.2669C82.4088 64.2329 82.2514 64.2105 82.093 64.2C81.7811 64.1788 81.4678 64.2058 81.1641 64.2798C80.7107 64.3925 80.2888 64.6065 79.9304 64.9058C79.572 65.2051 79.2864 65.5818 79.0952 66.0075C78.904 66.4331 78.8122 66.8966 78.8267 67.3629C78.8412 67.8292 78.9617 68.2861 79.179 68.6991L81.121 72.3699L81.2181 72.5533H87.7396L84.6916 65.9751Z" fill="#3F3D56"/>
<path d="M74.018 64.062C73.7125 63.9068 73.3833 63.8033 73.0438 63.7558C72.7912 63.7198 72.5349 63.7162 72.2814 63.745C71.636 63.8179 71.0303 64.0927 70.5507 64.53C70.0712 64.9674 69.7424 65.5449 69.6114 66.18L68.2959 72.5533H73.4413L74.4026 72.1608L75.5993 67.5754C75.7734 66.8976 75.7117 66.1808 75.4244 65.5425C75.1371 64.9041 74.6413 64.3822 74.018 64.062Z" fill="#3F3D56"/>
<path d="M72.6435 55.9176C74.3189 55.7833 75.71 54.1121 75.5358 52.4429C75.5162 53.1309 75.7505 53.8021 76.1942 54.3289C76.638 54.8556 77.2602 55.2011 77.9424 55.2997C78.711 55.3842 79.5535 55.1521 80.2225 55.5392C80.9634 55.968 81.2005 57.0092 81.9724 57.3795C82.7182 57.7374 83.6654 57.2494 84.0339 56.5096C84.4023 55.7699 84.3119 54.8812 84.0677 54.0919C83.7195 52.9662 83.0854 51.9496 82.2271 51.1411C81.3689 50.3326 80.3156 49.7596 79.1698 49.4779C78.0241 49.1962 76.8248 49.2153 75.6886 49.5335C74.5525 49.8516 73.5181 50.4579 72.6862 51.2934C71.9817 52.001 71.4223 52.9027 71.3316 53.8963C71.2408 54.8899 71.7025 55.968 72.5961 56.4143L72.6435 55.9176Z" fill="#2F2E41"/>
<path d="M128.609 65.4359H100.095C99.637 65.4359 99.1974 65.2541 98.8733 64.9305C98.5493 64.6069 98.3672 64.1681 98.3672 63.7104C98.3672 63.2528 98.5493 62.814 98.8733 62.4904C99.1974 62.1668 99.637 61.985 100.095 61.985H128.609C129.067 61.985 129.507 62.1668 129.831 62.4904C130.155 62.814 130.337 63.2528 130.337 63.7104C130.337 64.1681 130.155 64.6069 129.831 64.9305C129.507 65.2541 129.067 65.4359 128.609 65.4359Z" fill="#E6E6E6"/>
<path d="M115.648 58.1028H100.095C99.637 58.1028 99.1974 57.921 98.8733 57.5975C98.5493 57.2739 98.3672 56.835 98.3672 56.3774C98.3672 55.9198 98.5493 55.4809 98.8733 55.1573C99.1974 54.8338 99.637 54.652 100.095 54.652H115.648C116.106 54.652 116.546 54.8338 116.87 55.1573C117.194 55.4809 117.376 55.9198 117.376 56.3774C117.376 56.835 117.194 57.2739 116.87 57.5975C116.546 57.921 116.106 58.1028 115.648 58.1028Z" fill="#3E57FE"/>
<path d="M123.993 70.7036C122.484 70.7064 121.037 71.307 119.971 72.3736C118.905 73.4402 118.306 74.8857 118.306 76.3927C118.306 77.8998 118.905 79.3452 119.971 80.4118C121.037 81.4785 122.484 82.0791 123.993 82.0819H123.993C125.502 82.0791 126.949 81.4785 128.015 80.4119C129.082 79.3452 129.681 77.8998 129.681 76.3927C129.681 74.8857 129.082 73.4402 128.015 72.3736C126.949 71.307 125.502 70.7064 123.993 70.7036Z" fill="#3E57FE"/>
<path d="M123.453 78.7555C123.303 78.7557 123.157 78.7073 123.037 78.6174L123.029 78.6119L121.462 77.415C121.316 77.3028 121.22 77.1371 121.196 76.9544C121.172 76.7718 121.222 76.5871 121.334 76.4409C121.446 76.2946 121.612 76.1989 121.795 76.1746C121.978 76.1504 122.163 76.1996 122.31 76.3115L123.325 77.0886L125.723 73.9645C125.779 73.8921 125.848 73.8313 125.927 73.7856C126.006 73.74 126.094 73.7103 126.184 73.6984C126.275 73.6864 126.367 73.6924 126.455 73.716C126.544 73.7396 126.626 73.7803 126.699 73.8358L126.699 73.836L126.684 73.8566L126.699 73.836C126.846 73.9483 126.942 74.114 126.966 74.2967C126.99 74.4794 126.94 74.6642 126.828 74.8105L124.007 78.4835C123.942 78.5681 123.858 78.6366 123.762 78.6836C123.666 78.7307 123.56 78.755 123.453 78.7547L123.453 78.7555Z" fill="white"/>
</g>
<defs>
<clipPath id="clip0_308_731">
<rect width="194" height="86" fill="white"/>
</clipPath>
</defs>
</svg>
