<svg width="175" height="168" viewBox="0 0 175 168" fill="none" xmlns="http://www.w3.org/2000/svg">
<g clip-path="url(#clip0_308_590)">
<path d="M151.947 108.098H16.8792C16.3057 108.098 15.7557 108.328 15.3502 108.738C14.9446 109.148 14.7168 109.703 14.7168 110.283C14.7168 110.862 14.9446 111.418 15.3502 111.827C15.7557 112.237 16.3057 112.467 16.8792 112.467H20.705V164.728C20.705 165.307 20.9328 165.863 21.3384 166.273C21.7439 166.682 22.2939 166.913 22.8674 166.913C23.4409 166.913 23.991 166.682 24.3965 166.273C24.802 165.863 25.0298 165.307 25.0298 164.728L25.0627 112.467H143.464V164.728C143.464 165.307 143.691 165.863 144.097 166.273C144.502 166.682 145.052 166.913 145.626 166.913C146.2 166.913 146.75 166.682 147.155 166.273C147.561 165.863 147.788 165.307 147.788 164.728V113.619L148.418 112.467H151.947C152.52 112.467 153.07 112.237 153.476 111.827C153.881 111.418 154.109 110.862 154.109 110.283C154.109 109.703 153.881 109.148 153.476 108.738C153.07 108.328 152.52 108.098 151.947 108.098Z" fill="#CCCCCC"/>
<path d="M91.7609 109.241H50.8474C50.0552 109.241 49.2957 108.922 48.7355 108.356C48.1754 107.79 47.8603 107.023 47.8594 106.223V83.4669C47.8603 82.6666 48.1754 81.8993 48.7355 81.3334C49.2957 80.7675 50.0552 80.4492 50.8474 80.4483H91.7609C92.5531 80.4492 93.3126 80.7675 93.8728 81.3334C94.433 81.8993 94.7481 82.6666 94.749 83.4669V106.223C94.7481 107.023 94.433 107.79 93.8728 108.356C93.3126 108.922 92.5531 109.241 91.7609 109.241Z" fill="#3F3D56"/>
<path d="M91.7618 82.7715H50.8487C50.6662 82.7719 50.4913 82.8454 50.3622 82.9757C50.2332 83.1061 50.1605 83.2829 50.1602 83.4672V106.223C50.1605 106.408 50.2332 106.585 50.3623 106.715C50.4913 106.845 50.6662 106.919 50.8487 106.919H91.7618C91.9443 106.919 92.1192 106.845 92.2483 106.715C92.3773 106.585 92.45 106.408 92.4504 106.223V83.4672C92.45 83.2829 92.3773 83.1061 92.2483 82.9757C92.1192 82.8454 91.9443 82.7719 91.7618 82.7715Z" fill="white"/>
<path d="M74.794 98.8827C74.794 98.8827 69.8962 97.7426 67.2024 99.8328C64.5086 101.923 70.6309 106.674 70.6309 106.674L74.794 98.8827Z" fill="#2F2E41"/>
<path d="M71.5447 96.7285C74.0963 96.7285 76.1647 94.6389 76.1647 92.0612C76.1647 89.4836 74.0963 87.394 71.5447 87.394C68.9932 87.394 66.9248 89.4836 66.9248 92.0612C66.9248 94.6389 68.9932 96.7285 71.5447 96.7285Z" fill="#A0616A"/>
<path d="M67.9729 85.5096C68.2809 84.9814 68.7275 84.5494 69.2633 84.2614C69.7991 83.9734 70.4032 83.8406 71.009 83.8777C71.6427 83.9579 72.2611 84.1328 72.8439 84.3965L75.8641 85.5867C76.6456 85.8947 77.5015 86.2719 77.8406 87.047C78.1554 87.7664 77.9205 88.5972 77.6828 89.3462L76.5529 92.9065C76.4277 92.1007 76.2129 91.3118 75.9125 90.5547C75.6073 89.7925 75.0557 89.1571 74.3475 88.7519C73.563 88.3454 72.6384 88.3538 71.7577 88.3966C70.5104 88.4572 69.1543 88.6176 68.2681 89.5063C67.7977 90.011 67.4788 90.6403 67.3484 91.3209C67.2201 91.9979 67.1555 92.6856 67.1555 93.3749C66.6441 92.4867 66.2132 91.5536 65.8683 90.587C65.5845 89.8672 65.4229 89.1043 65.39 88.3302C65.3604 87.5496 65.6167 86.7853 66.1101 86.1837C66.3606 85.8897 66.6873 85.6722 67.0535 85.5558C67.4198 85.4393 67.8109 85.4286 68.1829 85.5246L67.9729 85.5096Z" fill="#2F2E41"/>
<path d="M82.5761 102.93C82.5327 102.772 82.4442 102.631 82.3217 102.524C82.1992 102.417 82.0482 102.349 81.8875 102.328C81.8769 102.321 81.8658 102.314 81.8542 102.308L74.9573 98.4033C74.7604 98.2918 74.5285 98.2613 74.3099 98.3182C74.0912 98.375 73.9027 98.5149 73.7835 98.7086L71.8973 101.794L69.0562 98.9237L69.011 98.878C68.8652 98.7307 68.6727 98.64 68.4673 98.6219C68.2618 98.6038 68.0567 98.6593 67.8877 98.7788L62.2195 102.789C62.2096 102.789 62.1996 102.792 62.1896 102.792C61.9184 102.838 61.6706 102.975 61.4873 103.183C61.304 103.39 61.1961 103.654 61.1815 103.931L61.0352 106.919H83.6707L82.5761 102.93Z" fill="#3E57FE"/>
<path d="M95.2094 106.455H90.8422C90.8422 106.332 90.7938 106.214 90.7076 106.127C90.6214 106.039 90.5045 105.991 90.3825 105.991H89.0034C88.8815 105.991 88.7646 106.039 88.6784 106.127C88.5922 106.214 88.5437 106.332 88.5437 106.455H87.1646C87.1646 106.332 87.1162 106.214 87.03 106.127C86.9438 106.039 86.8268 105.991 86.7049 105.991H85.3258C85.2039 105.991 85.087 106.039 85.0008 106.127C84.9145 106.214 84.8661 106.332 84.8661 106.455H83.487C83.487 106.332 83.4386 106.214 83.3524 106.127C83.2662 106.039 83.1492 105.991 83.0273 105.991H81.6482C81.5263 105.991 81.4094 106.039 81.3232 106.127C81.2369 106.214 81.1885 106.332 81.1885 106.455H79.8094C79.8094 106.332 79.761 106.214 79.6748 106.127C79.5886 106.039 79.4716 105.991 79.3497 105.991H77.9706C77.8487 105.991 77.7317 106.039 77.6455 106.127C77.5593 106.214 77.5109 106.332 77.5109 106.455H76.1318C76.1318 106.332 76.0834 106.214 75.9971 106.127C75.9109 106.039 75.794 105.991 75.6721 105.991H74.293C74.1711 105.991 74.0541 106.039 73.9679 106.127C73.8817 106.214 73.8333 106.332 73.8333 106.455H72.4542C72.4542 106.332 72.4057 106.214 72.3195 106.127C72.2333 106.039 72.1164 105.991 71.9945 105.991H70.6154C70.4934 105.991 70.3765 106.039 70.2903 106.127C70.2041 106.214 70.1556 106.332 70.1556 106.455H68.7765C68.7765 106.332 68.7281 106.214 68.6419 106.127C68.5557 106.039 68.4388 105.991 68.3169 105.991H66.9377C66.8158 105.991 66.6989 106.039 66.6127 106.127C66.5265 106.214 66.478 106.332 66.478 106.455H65.0989C65.0989 106.332 65.0505 106.214 64.9643 106.127C64.8781 106.039 64.7612 105.991 64.6392 105.991H63.2601C63.1382 105.991 63.0213 106.039 62.9351 106.127C62.8489 106.214 62.8004 106.332 62.8004 106.455H61.4213C61.4213 106.332 61.3729 106.214 61.2867 106.127C61.2005 106.039 61.0835 105.991 60.9616 105.991H59.5825C59.4606 105.991 59.3437 106.039 59.2575 106.127C59.1713 106.214 59.1228 106.332 59.1228 106.455H57.7437C57.7437 106.332 57.6953 106.214 57.6091 106.127C57.5228 106.039 57.4059 105.991 57.284 105.991H55.9049C55.783 105.991 55.666 106.039 55.5798 106.127C55.4936 106.214 55.4452 106.332 55.4452 106.455H54.0661C54.0661 106.332 54.0177 106.214 53.9314 106.127C53.8452 106.039 53.7283 105.991 53.6064 105.991H52.2273C52.1054 105.991 51.9884 106.039 51.9022 106.127C51.816 106.214 51.7676 106.332 51.7676 106.455H47.4004C47.035 106.456 46.6848 106.603 46.4266 106.864C46.1684 107.125 46.0234 107.479 46.0234 107.848C46.0234 108.217 46.1684 108.571 46.4266 108.833C46.6848 109.094 47.035 109.241 47.4004 109.241H95.2094C95.5752 109.241 95.926 109.095 96.1846 108.833C96.4432 108.572 96.5885 108.218 96.5885 107.848C96.5885 107.479 96.4432 107.124 96.1846 106.863C95.926 106.602 95.5752 106.455 95.2094 106.455Z" fill="#3F3D56"/>
<path d="M40.2914 98.3642V107.615H17.3491C16.7344 107.637 16.1218 107.533 15.5476 107.31C14.9734 107.088 14.4495 106.75 14.0071 106.319C13.5647 105.887 13.2128 105.37 12.9725 104.798C12.7322 104.226 12.6084 103.611 12.6084 102.99C12.6084 102.368 12.7322 101.753 12.9725 101.181C13.2128 100.609 13.5647 100.092 14.0071 99.6605C14.4495 99.2289 14.9734 98.8916 15.5476 98.6689C16.1218 98.4462 16.7344 98.3426 17.3491 98.3642H40.2914Z" fill="#F2F2F2"/>
<path d="M40.8549 107.544C40.8548 107.638 40.8177 107.729 40.7517 107.795C40.6856 107.862 40.596 107.9 40.5026 107.9H16.9404C15.6607 107.9 14.4334 107.386 13.5285 106.472C12.6236 105.558 12.1152 104.318 12.1152 103.025C12.1152 101.732 12.6236 100.493 13.5285 99.5784C14.4334 98.6643 15.6607 98.1507 16.9404 98.1507H40.5026C40.5961 98.1507 40.6856 98.1882 40.7517 98.2549C40.8177 98.3216 40.8549 98.4121 40.8549 98.5065C40.8549 98.6009 40.8177 98.6914 40.7517 98.7581C40.6856 98.8248 40.5961 98.8623 40.5026 98.8623H16.9404C15.8481 98.8633 14.801 99.3023 14.029 100.083C13.257 100.864 12.8233 101.922 12.8233 103.025C12.8233 104.129 13.257 105.187 14.029 105.968C14.801 106.748 15.8481 107.187 16.9404 107.188H40.5026C40.596 107.188 40.6856 107.226 40.7516 107.292C40.8177 107.359 40.8548 107.45 40.8549 107.544Z" fill="#3E57FE"/>
<path d="M40.2914 100.498H15.6373C15.628 100.498 15.6188 100.496 15.6102 100.493C15.6016 100.489 15.5938 100.484 15.5872 100.478C15.5806 100.471 15.5754 100.463 15.5718 100.455C15.5682 100.446 15.5664 100.437 15.5664 100.427C15.5664 100.418 15.5682 100.409 15.5718 100.4C15.5754 100.392 15.5806 100.384 15.5872 100.377C15.5938 100.371 15.6016 100.365 15.6102 100.362C15.6188 100.358 15.628 100.357 15.6373 100.357H40.2914C40.31 100.357 40.3278 100.364 40.3409 100.378C40.354 100.391 40.3614 100.409 40.3614 100.427C40.3614 100.446 40.354 100.464 40.3409 100.477C40.3278 100.491 40.31 100.498 40.2914 100.498Z" fill="#CCCCCC"/>
<path d="M40.2914 102.206H15.6373C15.628 102.206 15.6188 102.204 15.6102 102.201C15.6016 102.197 15.5938 102.192 15.5872 102.185C15.5806 102.179 15.5754 102.171 15.5718 102.162C15.5682 102.154 15.5664 102.145 15.5664 102.135C15.5664 102.126 15.5682 102.117 15.5718 102.108C15.5754 102.099 15.5806 102.092 15.5872 102.085C15.5938 102.078 15.6016 102.073 15.6102 102.07C15.6188 102.066 15.628 102.064 15.6373 102.065H40.2914C40.31 102.065 40.3278 102.072 40.3409 102.085C40.354 102.099 40.3614 102.117 40.3614 102.135C40.3614 102.154 40.354 102.172 40.3409 102.185C40.3278 102.198 40.31 102.206 40.2914 102.206Z" fill="#CCCCCC"/>
<path d="M40.2914 103.914H15.6373C15.628 103.914 15.6188 103.912 15.6102 103.909C15.6016 103.905 15.5938 103.9 15.5872 103.893C15.5806 103.887 15.5754 103.879 15.5718 103.87C15.5682 103.862 15.5664 103.852 15.5664 103.843C15.5664 103.834 15.5682 103.825 15.5718 103.816C15.5754 103.807 15.5806 103.8 15.5872 103.793C15.5938 103.786 15.6016 103.781 15.6102 103.778C15.6188 103.774 15.628 103.772 15.6373 103.772H40.2914C40.31 103.773 40.3278 103.78 40.3409 103.793C40.354 103.807 40.3614 103.824 40.3614 103.843C40.3614 103.862 40.354 103.88 40.3409 103.893C40.3278 103.906 40.31 103.914 40.2914 103.914Z" fill="#CCCCCC"/>
<path d="M40.2914 105.622H15.6373C15.628 105.622 15.6188 105.62 15.6102 105.617C15.6016 105.613 15.5938 105.608 15.5872 105.601C15.5806 105.595 15.5754 105.587 15.5718 105.578C15.5682 105.57 15.5664 105.56 15.5664 105.551C15.5664 105.542 15.5682 105.532 15.5718 105.524C15.5754 105.515 15.5806 105.507 15.5872 105.501C15.5938 105.494 15.6016 105.489 15.6102 105.485C15.6188 105.482 15.628 105.48 15.6373 105.48H40.2914C40.31 105.48 40.3278 105.488 40.3409 105.501C40.354 105.514 40.3614 105.532 40.3614 105.551C40.3614 105.57 40.354 105.588 40.3409 105.601C40.3278 105.614 40.31 105.622 40.2914 105.622Z" fill="#CCCCCC"/>
<path d="M35.9662 88.6177V97.8687H13.0239C12.4092 97.8903 11.7966 97.7866 11.2224 97.5639C10.6482 97.3412 10.1243 97.0039 9.68189 96.5723C9.23949 96.1406 8.88765 95.6234 8.64734 95.0515C8.40704 94.4795 8.2832 93.8645 8.2832 93.2432C8.2832 92.6219 8.40704 92.0069 8.64734 91.4349C8.88765 90.863 9.23949 90.3457 9.68189 89.9141C10.1243 89.4825 10.6482 89.1452 11.2224 88.9225C11.7966 88.6998 12.4092 88.5961 13.0239 88.6177H35.9662Z" fill="#F2F2F2"/>
<path d="M36.5297 97.7975C36.5296 97.8919 36.4925 97.9824 36.4265 98.0491C36.3604 98.1158 36.2708 98.1533 36.1774 98.1533H12.6152C11.9815 98.1533 11.3541 98.0273 10.7687 97.7823C10.1833 97.5373 9.65135 97.1783 9.2033 96.7256C8.75524 96.273 8.39981 95.7356 8.15733 95.1442C7.91484 94.5528 7.79004 93.919 7.79004 93.2788C7.79004 92.6387 7.91484 92.0048 8.15733 91.4134C8.39981 90.822 8.75524 90.2847 9.2033 89.832C9.65135 89.3794 10.1833 89.0203 10.7687 88.7753C11.3541 88.5304 11.9815 88.4043 12.6152 88.4043H36.1774C36.2709 88.4043 36.3604 88.4418 36.4265 88.5085C36.4925 88.5752 36.5297 88.6657 36.5297 88.7601C36.5297 88.8545 36.4925 88.945 36.4265 89.0117C36.3604 89.0784 36.2709 89.1159 36.1774 89.1159H12.6152C11.5229 89.1169 10.4758 89.5559 9.70378 90.3365C8.93179 91.1171 8.49814 92.1754 8.49814 93.2788C8.49814 94.3822 8.93179 95.4405 9.70378 96.2211C10.4758 97.0017 11.5229 97.4407 12.6152 97.4417H36.1774C36.2708 97.4418 36.3604 97.4793 36.4264 97.546C36.4925 97.6127 36.5296 97.7032 36.5297 97.7975Z" fill="#3F3D56"/>
<path d="M35.9672 90.7518H11.3131C11.3038 90.7518 11.2946 90.75 11.286 90.7465C11.2774 90.743 11.2696 90.7378 11.263 90.7312C11.2564 90.7246 11.2512 90.7168 11.2476 90.7082C11.244 90.6996 11.2422 90.6903 11.2422 90.681C11.2422 90.6717 11.244 90.6624 11.2476 90.6538C11.2512 90.6452 11.2564 90.6374 11.263 90.6308C11.2696 90.6242 11.2774 90.619 11.286 90.6155C11.2946 90.612 11.3038 90.6102 11.3131 90.6102H35.9672C35.9858 90.6104 36.0036 90.6179 36.0167 90.6311C36.0298 90.6444 36.0372 90.6623 36.0372 90.681C36.0372 90.6997 36.0298 90.7176 36.0167 90.7309C36.0036 90.7441 35.9858 90.7516 35.9672 90.7518Z" fill="#CCCCCC"/>
<path d="M35.9672 92.4596H11.3131C11.3038 92.4597 11.2946 92.4579 11.286 92.4544C11.2774 92.4509 11.2696 92.4457 11.263 92.4391C11.2564 92.4325 11.2512 92.4247 11.2476 92.4161C11.244 92.4075 11.2422 92.3982 11.2422 92.3889C11.2422 92.3795 11.244 92.3703 11.2476 92.3617C11.2512 92.3531 11.2564 92.3452 11.263 92.3387C11.2696 92.3321 11.2774 92.3269 11.286 92.3234C11.2946 92.3198 11.3038 92.3181 11.3131 92.3181H35.9672C35.9858 92.3182 36.0036 92.3257 36.0167 92.339C36.0298 92.3523 36.0372 92.3702 36.0372 92.3889C36.0372 92.4076 36.0298 92.4255 36.0167 92.4387C36.0036 92.452 35.9858 92.4595 35.9672 92.4596Z" fill="#CCCCCC"/>
<path d="M35.9672 94.1675H11.3131C11.3038 94.1676 11.2946 94.1658 11.286 94.1623C11.2774 94.1587 11.2696 94.1535 11.263 94.1469C11.2564 94.1404 11.2512 94.1325 11.2476 94.1239C11.244 94.1153 11.2422 94.1061 11.2422 94.0967C11.2422 94.0874 11.244 94.0782 11.2476 94.0695C11.2512 94.0609 11.2564 94.0531 11.263 94.0465C11.2696 94.0399 11.2774 94.0347 11.286 94.0312C11.2946 94.0277 11.3038 94.0259 11.3131 94.026H35.9672C35.9858 94.0261 36.0036 94.0336 36.0167 94.0469C36.0298 94.0601 36.0372 94.0781 36.0372 94.0967C36.0372 94.1154 36.0298 94.1333 36.0167 94.1466C36.0036 94.1599 35.9858 94.1674 35.9672 94.1675Z" fill="#CCCCCC"/>
<path d="M35.9672 95.8754H11.3131C11.3038 95.8754 11.2946 95.8737 11.286 95.8701C11.2774 95.8666 11.2696 95.8614 11.263 95.8548C11.2564 95.8483 11.2512 95.8404 11.2476 95.8318C11.244 95.8232 11.2422 95.814 11.2422 95.8046C11.2422 95.7953 11.244 95.786 11.2476 95.7774C11.2512 95.7688 11.2564 95.761 11.263 95.7544C11.2696 95.7478 11.2774 95.7426 11.286 95.7391C11.2946 95.7356 11.3038 95.7338 11.3131 95.7339H35.9672C35.9858 95.734 36.0036 95.7415 36.0167 95.7547C36.0298 95.768 36.0372 95.7859 36.0372 95.8046C36.0372 95.8233 36.0298 95.8412 36.0167 95.8545C36.0036 95.8677 35.9858 95.8753 35.9672 95.8754Z" fill="#CCCCCC"/>
<path d="M62.655 140.497V132.431C62.6549 132.075 62.5147 131.733 62.2652 131.481C62.0156 131.228 61.6772 131.087 61.3242 131.087H31.0504C30.6975 131.087 30.359 131.228 30.1095 131.481C29.8599 131.733 29.7197 132.075 29.7197 132.431V140.497H62.655Z" fill="#CCCCCC"/>
<path d="M62.655 143.522H29.7197V153.94H62.655V143.522Z" fill="#CCCCCC"/>
<path d="M29.7197 156.965V165.031C29.7197 165.388 29.8599 165.73 30.1095 165.982C30.359 166.234 30.6975 166.375 31.0504 166.375H61.3242C61.6772 166.375 62.0156 166.234 62.2652 165.982C62.5147 165.73 62.6549 165.388 62.655 165.031V156.965H29.7197Z" fill="#CCCCCC"/>
<path d="M46.0215 137.136C46.5727 137.136 47.0195 136.685 47.0195 136.128C47.0195 135.571 46.5727 135.12 46.0215 135.12C45.4703 135.12 45.0234 135.571 45.0234 136.128C45.0234 136.685 45.4703 137.136 46.0215 137.136Z" fill="white"/>
<path d="M46.0215 150.58C46.5727 150.58 47.0195 150.128 47.0195 149.571C47.0195 149.015 46.5727 148.563 46.0215 148.563C45.4703 148.563 45.0234 149.015 45.0234 149.571C45.0234 150.128 45.4703 150.58 46.0215 150.58Z" fill="white"/>
<path d="M46.0752 163.738C46.6264 163.738 47.0732 163.287 47.0732 162.73C47.0732 162.173 46.6264 161.722 46.0752 161.722C45.524 161.722 45.0771 162.173 45.0771 162.73C45.0771 163.287 45.524 163.738 46.0752 163.738Z" fill="white"/>
<path d="M58.9213 121.89V131.141H35.979C35.3643 131.162 34.7516 131.059 34.1774 130.836C33.6033 130.613 33.0794 130.276 32.637 129.845C32.1946 129.413 31.8427 128.896 31.6024 128.324C31.3621 127.752 31.2383 127.137 31.2383 126.515C31.2383 125.894 31.3621 125.279 31.6024 124.707C31.8427 124.135 32.1946 123.618 32.637 123.186C33.0794 122.755 33.6033 122.417 34.1774 122.195C34.7516 121.972 35.3643 121.868 35.979 121.89H58.9213Z" fill="#F2F2F2"/>
<path d="M59.4848 131.07C59.4848 131.164 59.4477 131.255 59.3816 131.321C59.3156 131.388 59.226 131.425 59.1326 131.426H35.5704C34.9364 131.426 34.3085 131.3 33.7226 131.056C33.1368 130.811 32.6044 130.452 32.1559 129.999C31.7074 129.547 31.3516 129.009 31.1089 128.417C30.8661 127.826 30.7412 127.191 30.7412 126.551C30.7412 125.911 30.8661 125.276 31.1089 124.685C31.3516 124.093 31.7074 123.555 32.1559 123.103C32.6044 122.65 33.1368 122.291 33.7226 122.046C34.3085 121.802 34.9364 121.676 35.5704 121.676H59.1326C59.226 121.676 59.3156 121.714 59.3817 121.781C59.4477 121.847 59.4848 121.938 59.4848 122.032C59.4848 122.127 59.4477 122.217 59.3817 122.284C59.3156 122.351 59.226 122.388 59.1326 122.388H35.5704C34.4781 122.389 33.4309 122.828 32.6589 123.609C31.887 124.389 31.4533 125.448 31.4533 126.551C31.4533 127.654 31.887 128.713 32.6589 129.493C33.4309 130.274 34.4781 130.713 35.5704 130.714H59.1326C59.226 130.714 59.3156 130.751 59.3816 130.818C59.4477 130.885 59.4848 130.975 59.4848 131.07Z" fill="#3F3D56"/>
<path d="M58.9213 124.024H34.2672C34.2579 124.024 34.2487 124.022 34.2401 124.019C34.2315 124.015 34.2237 124.01 34.2171 124.003C34.2105 123.997 34.2053 123.989 34.2017 123.98C34.1981 123.972 34.1963 123.963 34.1963 123.953C34.1963 123.944 34.1981 123.935 34.2017 123.926C34.2053 123.917 34.2105 123.91 34.2171 123.903C34.2237 123.896 34.2315 123.891 34.2401 123.888C34.2487 123.884 34.2579 123.882 34.2672 123.882H58.9213C58.9399 123.883 58.9577 123.89 58.9708 123.903C58.9839 123.917 58.9913 123.935 58.9913 123.953C58.9913 123.972 58.9839 123.99 58.9708 124.003C58.9577 124.016 58.9399 124.024 58.9213 124.024Z" fill="#CCCCCC"/>
<path d="M58.9213 125.732H34.2672C34.2579 125.732 34.2487 125.73 34.2401 125.727C34.2315 125.723 34.2237 125.718 34.2171 125.711C34.2105 125.705 34.2053 125.697 34.2017 125.688C34.1981 125.68 34.1963 125.67 34.1963 125.661C34.1963 125.652 34.1981 125.643 34.2017 125.634C34.2053 125.625 34.2105 125.617 34.2171 125.611C34.2237 125.604 34.2315 125.599 34.2401 125.596C34.2487 125.592 34.2579 125.59 34.2672 125.59H58.9213C58.9399 125.59 58.9577 125.598 58.9708 125.611C58.9839 125.625 58.9913 125.642 58.9913 125.661C58.9913 125.68 58.9839 125.698 58.9708 125.711C58.9577 125.724 58.9399 125.732 58.9213 125.732Z" fill="#CCCCCC"/>
<path d="M58.9213 127.44H34.2672C34.2579 127.44 34.2487 127.438 34.2401 127.435C34.2315 127.431 34.2237 127.426 34.2171 127.419C34.2105 127.413 34.2053 127.405 34.2017 127.396C34.1981 127.388 34.1963 127.378 34.1963 127.369C34.1963 127.36 34.1981 127.35 34.2017 127.342C34.2053 127.333 34.2105 127.325 34.2171 127.319C34.2237 127.312 34.2315 127.307 34.2401 127.303C34.2487 127.3 34.2579 127.298 34.2672 127.298H58.9213C58.9399 127.298 58.9577 127.306 58.9708 127.319C58.9839 127.332 58.9913 127.35 58.9913 127.369C58.9913 127.388 58.9839 127.406 58.9708 127.419C58.9577 127.432 58.9399 127.44 58.9213 127.44Z" fill="#CCCCCC"/>
<path d="M58.9213 129.148H34.2672C34.2579 129.148 34.2487 129.146 34.2401 129.142C34.2315 129.139 34.2237 129.134 34.2171 129.127C34.2105 129.12 34.2053 129.113 34.2017 129.104C34.1981 129.095 34.1963 129.086 34.1963 129.077C34.1963 129.067 34.1981 129.058 34.2017 129.05C34.2053 129.041 34.2105 129.033 34.2171 129.027C34.2237 129.02 34.2315 129.015 34.2401 129.011C34.2487 129.008 34.2579 129.006 34.2672 129.006H58.9213C58.9399 129.006 58.9577 129.014 58.9708 129.027C58.9839 129.04 58.9913 129.058 58.9913 129.077C58.9913 129.095 58.9839 129.113 58.9708 129.127C58.9577 129.14 58.9399 129.147 58.9213 129.148Z" fill="#CCCCCC"/>
<path d="M27.9922 61.5104V2.52783C27.9929 1.85764 28.2568 1.21512 28.7259 0.741227C29.195 0.267334 29.831 0.000762316 30.4944 0H76.6465C77.3099 0.000766754 77.9459 0.26734 78.415 0.741233C78.8841 1.21513 79.148 1.85764 79.1487 2.52783V61.5104C79.148 62.1806 78.8841 62.8231 78.415 63.297C77.9459 63.7709 77.3099 64.0374 76.6465 64.0382H30.4944C29.831 64.0374 29.195 63.7709 28.7259 63.297C28.2568 62.8231 27.9929 62.1806 27.9922 61.5104ZM30.4944 0.56174C29.9784 0.562323 29.4838 0.769653 29.1189 1.13824C28.754 1.50682 28.5488 2.00657 28.5482 2.52783V61.5104C28.5488 62.0316 28.754 62.5314 29.1189 62.9C29.4838 63.2685 29.9784 63.4759 30.4944 63.4765H76.6465C77.1625 63.4759 77.6572 63.2685 78.022 62.9C78.3869 62.5314 78.5921 62.0316 78.5927 61.5104V2.52783C78.5921 2.00657 78.3869 1.50682 78.022 1.13824C77.6572 0.769653 77.1625 0.562324 76.6465 0.56174H30.4944Z" fill="#E6E6E6"/>
<path d="M56.1592 27.0875V14.9765C56.1595 14.6414 56.2915 14.3202 56.526 14.0832C56.7606 13.8463 57.0786 13.713 57.4103 13.7126H67.5693C67.901 13.713 68.219 13.8463 68.4536 14.0832C68.6881 14.3202 68.82 14.6414 68.8204 14.9765V27.0875C68.82 27.4226 68.6881 27.7439 68.4536 27.9808C68.219 28.2178 67.901 28.351 67.5693 28.3514H57.4103C57.0786 28.351 56.7606 28.2178 56.526 27.9808C56.2915 27.7439 56.1595 27.4226 56.1592 27.0875Z" fill="#3E57FE"/>
<path d="M36.4189 32.7049V20.5939C36.4193 20.2588 36.5512 19.9376 36.7858 19.7006C37.0203 19.4637 37.3384 19.3304 37.6701 19.33H47.8291C48.1608 19.3304 48.4788 19.4637 48.7133 19.7006C48.9479 19.9376 49.0798 20.2588 49.0802 20.5939V32.7049C49.0798 33.04 48.9479 33.3613 48.7133 33.5982C48.4788 33.8352 48.1608 33.9684 47.8291 33.9688H37.6701C37.3384 33.9684 37.0203 33.8352 36.7858 33.5982C36.5512 33.3613 36.4193 33.04 36.4189 32.7049Z" fill="#CCCCCC"/>
<path d="M52.2666 49.8379V37.727C52.267 37.3919 52.3989 37.0706 52.6335 36.8336C52.868 36.5967 53.186 36.4634 53.5177 36.463H63.6767C64.0084 36.4634 64.3264 36.5967 64.561 36.8336C64.7955 37.0706 64.9275 37.3919 64.9278 37.727V49.8379C64.9275 50.173 64.7955 50.4943 64.561 50.7312C64.3264 50.9682 64.0084 51.1015 63.6767 51.1018H53.5177C53.186 51.1015 52.868 50.9682 52.6335 50.7312C52.3989 50.4943 52.267 50.173 52.2666 49.8379Z" fill="#FF6584"/>
<path d="M112.976 105.208H102.524C102.424 105.208 102.327 105.231 102.238 105.276L99.5993 106.61C99.5125 106.647 99.4385 106.709 99.3864 106.789C99.3344 106.868 99.3066 106.962 99.3066 107.057C99.3066 107.152 99.3344 107.245 99.3864 107.325C99.4385 107.404 99.5125 107.467 99.5993 107.504L102.238 108.838C102.327 108.882 102.424 108.905 102.524 108.905H112.976C113.12 108.914 113.262 108.865 113.37 108.768C113.479 108.672 113.545 108.537 113.555 108.391V105.723C113.545 105.577 113.479 105.442 113.37 105.345C113.262 105.249 113.12 105.2 112.976 105.208Z" fill="#3F3D56"/>
<path d="M113.555 105.723V108.391C113.545 108.537 113.478 108.672 113.37 108.768C113.262 108.865 113.12 108.914 112.976 108.905H110.894V105.208H112.976C113.12 105.2 113.262 105.249 113.37 105.346C113.478 105.442 113.545 105.577 113.555 105.723Z" fill="#3E57FE"/>
<path d="M112.898 85.245C113.372 85.0386 113.883 84.9356 114.399 84.9427C114.914 84.9498 115.422 85.0669 115.89 85.2863C116.358 85.5058 116.774 85.8225 117.112 86.2159C117.451 86.6092 117.703 87.0703 117.852 87.5689C117.898 87.727 117.934 87.8881 117.958 88.0512L132.576 95.3738L135.958 93.1091L140.167 98.0043L135.002 102.242C134.381 102.748 133.615 103.038 132.818 103.069C132.021 103.1 131.235 102.87 130.577 102.415L115.747 92.0538C115.636 92.1011 115.524 92.1426 115.409 92.1782C114.915 92.329 114.396 92.3728 113.884 92.3066C113.373 92.2404 112.881 92.0657 112.441 91.7941C112.001 91.5225 111.622 91.1599 111.331 90.7303C111.039 90.3007 110.84 89.8136 110.748 89.3011C110.721 89.1523 110.703 89.0019 110.694 88.8509C110.653 88.0944 110.842 87.3433 111.236 86.6986C111.63 86.054 112.21 85.5467 112.898 85.245Z" fill="#FFB8B8"/>
<path d="M143.343 130.33H127.371C127.371 130.794 110.91 131.17 110.91 131.17C110.652 131.367 110.416 131.592 110.208 131.843C109.583 132.596 109.241 133.548 109.243 134.531V135.203C109.244 136.317 109.682 137.386 110.462 138.173C111.241 138.961 112.299 139.404 113.402 139.404H143.343C144.445 139.403 145.503 138.961 146.282 138.173C147.062 137.385 147.5 136.317 147.501 135.203V134.531C147.5 133.417 147.061 132.35 146.282 131.562C145.502 130.775 144.445 130.332 143.343 130.33Z" fill="#3F3D56"/>
<path d="M125.969 167.468H130.294V139.237H125.969V167.468Z" fill="#3F3D56"/>
<path d="M113.66 167.315C113.66 167.787 120.214 167.498 128.298 167.498C136.382 167.498 142.936 167.787 142.936 167.315C142.936 166.843 136.382 163.099 128.298 163.099C120.214 163.099 113.66 166.843 113.66 167.315Z" fill="#3F3D56"/>
<path d="M117.565 164.006L113.486 164.006L111.546 153.319L117.565 153.32L117.565 164.006Z" fill="#FFB8B8"/>
<path d="M118.604 168L105.453 168V167.831C105.453 167.152 105.586 166.48 105.843 165.853C106.1 165.225 106.477 164.655 106.952 164.175C107.428 163.695 107.992 163.314 108.613 163.054C109.234 162.794 109.9 162.66 110.572 162.66H110.572L118.604 162.661L118.604 168Z" fill="#2F2E41"/>
<path d="M111.463 157.379L103.333 138.959C102.654 137.407 102.579 135.653 103.122 134.047C103.666 132.441 104.788 131.101 106.266 130.294L123.903 120.74L131.951 120.048L139.374 119.366L139.428 119.458C139.496 119.575 141.092 122.36 140.013 125.414C139.195 127.73 137.066 129.54 133.686 130.792C125.797 133.714 116.683 136.212 113.131 137.15C112.974 137.19 112.828 137.264 112.701 137.366C112.574 137.468 112.47 137.596 112.396 137.741C112.321 137.885 112.277 138.043 112.266 138.205C112.254 138.367 112.276 138.529 112.33 138.682L119.884 155.827C119.963 156.045 119.992 156.277 119.967 156.508C119.943 156.738 119.867 156.96 119.744 157.155C119.622 157.351 119.457 157.516 119.261 157.637C119.066 157.758 118.845 157.832 118.617 157.853L112.973 158.269C112.925 158.273 112.877 158.276 112.83 158.276C112.54 158.275 112.258 158.191 112.015 158.032C111.773 157.873 111.581 157.646 111.463 157.379Z" fill="#2F2E41"/>
<path d="M119.56 164.006L115.482 164.006L113.541 153.319L119.561 153.32L119.56 164.006Z" fill="#FFB8B8"/>
<path d="M120.6 168L107.449 168V167.831C107.449 167.152 107.582 166.48 107.839 165.853C108.096 165.225 108.473 164.655 108.948 164.175C109.424 163.695 109.988 163.314 110.609 163.054C111.23 162.794 111.896 162.66 112.568 162.66H112.568L120.6 162.661L120.6 168Z" fill="#2F2E41"/>
<path d="M113.793 158.387L105.662 139.968C104.983 138.415 104.908 136.661 105.451 135.055C105.995 133.449 107.118 132.109 108.595 131.302L126.232 121.748L134.28 121.056L141.703 120.375L141.757 120.466C141.825 120.583 143.421 123.368 142.343 126.422C141.524 128.739 139.395 130.548 136.015 131.8C128.126 134.722 119.012 137.22 115.46 138.158C115.303 138.199 115.157 138.272 115.03 138.374C114.903 138.476 114.799 138.604 114.725 138.75C114.65 138.893 114.606 139.051 114.595 139.213C114.583 139.375 114.605 139.537 114.659 139.69L122.213 156.835C122.292 157.053 122.321 157.286 122.296 157.516C122.272 157.746 122.196 157.968 122.073 158.164C121.951 158.359 121.786 158.524 121.59 158.645C121.395 158.766 121.174 158.84 120.946 158.862L115.302 159.277C115.254 159.282 115.206 159.284 115.159 159.284C114.87 159.284 114.587 159.199 114.344 159.04C114.102 158.881 113.91 158.654 113.793 158.387Z" fill="#2F2E41"/>
<path d="M109.74 102.117C106.323 97.5255 103.622 92.433 101.73 87.0161C101.621 86.692 101.628 86.3392 101.752 86.0205C101.876 85.7017 102.108 85.4377 102.406 85.2754L114.098 78.9464C114.287 78.8432 114.497 78.785 114.712 78.7762C114.927 78.7674 115.141 78.8082 115.338 78.8956C115.538 78.9836 115.716 79.1166 115.858 79.2846C116 79.4525 116.102 79.651 116.156 79.8648C117.517 85.0847 120.075 89.9077 123.624 93.9436C123.77 94.1078 123.877 94.3036 123.937 94.516C123.996 94.7284 124.008 94.9517 123.969 95.1691C123.932 95.383 123.847 95.5856 123.721 95.7614C123.595 95.9371 123.43 96.0815 123.241 96.1835L111.549 102.512C111.25 102.674 110.904 102.722 110.572 102.65C110.241 102.577 109.946 102.388 109.74 102.117Z" fill="#CCCCCC"/>
<path d="M110.538 101.511C110.601 101.59 110.689 101.645 110.788 101.666C110.886 101.686 110.989 101.671 111.077 101.624L122.77 95.2946C122.826 95.2647 122.876 95.222 122.913 95.1697C122.951 95.1174 122.976 95.0569 122.987 94.9932C122.999 94.9258 122.996 94.8566 122.977 94.7908C122.958 94.725 122.924 94.6645 122.879 94.6141C119.226 90.4593 116.592 85.4942 115.191 80.1205C115.175 80.0541 115.144 79.9924 115.1 79.9402C115.057 79.8881 115.001 79.8468 114.939 79.8197C114.881 79.7933 114.817 79.7809 114.753 79.7836C114.689 79.7862 114.626 79.8039 114.57 79.8352L102.878 86.1641C102.789 86.2124 102.72 86.2905 102.683 86.3848C102.645 86.4792 102.641 86.5838 102.672 86.6807C104.53 92.0006 107.182 97.002 110.538 101.511Z" fill="white"/>
<path d="M148.583 100.429L139.426 103.944L137.19 97.6702C136.893 96.8372 136.898 95.925 137.202 95.0948C137.507 94.2645 138.092 93.5698 138.854 93.1333C139.626 92.6917 140.528 92.5434 141.398 92.715C142.268 92.8866 143.049 93.3669 143.599 94.0691L148.583 100.429Z" fill="#3E57FE"/>
<path d="M125.291 125.285C125.099 125.148 124.937 124.97 124.818 124.764C124.698 124.559 124.623 124.33 124.598 124.093C123.426 113.032 124.242 104.377 127.095 97.6311C127.598 96.4677 128.355 95.4345 129.309 94.6091C130.264 93.7837 131.391 93.1876 132.607 92.8656L140.009 92.4882L140.047 92.5069C141.717 93.3333 143.08 94.6816 143.932 96.3518C144.784 98.0219 145.08 99.925 144.778 101.779C142.397 108.118 140.403 114.719 141.924 120.044C141.987 120.266 142.006 120.5 141.978 120.73C141.951 120.96 141.877 121.182 141.763 121.382C141.652 121.576 141.502 121.745 141.324 121.879C141.146 122.012 140.942 122.107 140.726 122.158L126.628 125.547C126.399 125.601 126.162 125.606 125.932 125.561C125.701 125.516 125.483 125.422 125.291 125.285Z" fill="#3E57FE"/>
<path d="M137.539 89.6952C142.052 89.6952 145.71 85.9996 145.71 81.4407C145.71 76.8818 142.052 73.1862 137.539 73.1862C133.026 73.1862 129.368 76.8818 129.368 81.4407C129.368 85.9996 133.026 89.6952 137.539 89.6952Z" fill="#FFB8B8"/>
<path d="M114.866 87.9785L108.498 90.8183C108.255 90.9259 107.981 90.9322 107.734 90.8356C107.487 90.739 107.289 90.5475 107.182 90.303L107.024 89.9426C106.918 89.6979 106.911 89.4205 107.007 89.1713C107.103 88.922 107.292 88.7213 107.534 88.613L113.902 85.7733C114.144 85.6656 114.419 85.6594 114.666 85.756C114.912 85.8526 115.111 86.0441 115.218 86.2885L115.376 86.649C115.482 86.8936 115.488 87.171 115.393 87.4203C115.297 87.6695 115.108 87.8703 114.866 87.9785Z" fill="#CCCCCC"/>
<path d="M117.195 92.3476L110.827 95.1873C110.585 95.295 110.31 95.3013 110.063 95.2047C109.817 95.1081 109.618 94.9165 109.511 94.6721L109.353 94.3117C109.247 94.067 109.24 93.7896 109.336 93.5404C109.432 93.2911 109.621 93.0903 109.863 92.9821L116.231 90.1424C116.473 90.0347 116.748 90.0285 116.995 90.125C117.241 90.2216 117.44 90.4132 117.547 90.6576L117.705 91.018C117.811 91.2627 117.818 91.5401 117.722 91.7894C117.626 92.0386 117.437 92.2394 117.195 92.3476Z" fill="#CCCCCC"/>
<path d="M122.106 109.413L107.909 98.0983C107.796 98.1385 107.681 98.1728 107.564 98.2011C107.063 98.3195 106.543 98.3301 106.038 98.2321C105.532 98.1342 105.053 97.9299 104.631 97.6326C104.206 97.3351 103.849 96.9493 103.583 96.5011C103.318 96.0528 103.15 95.5525 103.092 95.0336C102.997 94.2039 103.182 93.3661 103.617 92.6561C104.052 91.9461 104.712 91.4056 105.49 91.1222C105.975 90.9463 106.492 90.876 107.006 90.9159C107.52 90.9557 108.02 91.1049 108.474 91.3536C108.927 91.6023 109.323 91.9448 109.636 92.3589C109.948 92.7729 110.171 93.2491 110.289 93.7562C110.326 93.9169 110.351 94.0799 110.366 94.2442L124.498 102.481L128.015 100.435L131.911 105.588L126.451 109.52C125.811 109.976 125.043 110.213 124.261 110.193C123.478 110.174 122.722 109.9 122.106 109.413Z" fill="#FFB8B8"/>
<path d="M133.643 107.193L125.543 101.628L129.35 96.1812C129.855 95.4579 130.598 94.9385 131.446 94.7146C132.293 94.4908 133.192 94.5769 133.984 94.9579C134.784 95.3432 135.421 96.005 135.781 96.8236C136.141 97.6423 136.199 98.5638 135.944 99.4219L133.643 107.193Z" fill="#3E57FE"/>
<path d="M134.543 80.2112C132.443 81.6633 129.686 83.1559 127.541 81.6096C126.132 80.5942 125.689 78.7141 126.26 77.0641C127.287 74.097 130.109 72.7907 132.807 71.7894C136.315 70.4877 140.135 69.4522 143.756 70.3844C147.377 71.3166 150.578 74.8586 149.924 78.5757C149.398 81.5649 146.607 84.0522 147.003 87.0617C147.402 90.0905 150.774 91.6848 153.751 92.2261C156.727 92.7674 160.058 92.9414 162.198 95.1014C164.927 97.8568 164.245 102.782 161.677 105.691C159.109 108.6 155.234 109.919 151.479 110.816C146.504 112.003 141.123 112.628 136.398 110.656C131.673 108.685 127.996 103.379 129.365 98.4029C129.943 96.3011 131.305 94.5248 132.621 92.7955C133.938 91.0662 135.271 89.2579 135.773 87.1363C136.191 85.3682 135.881 83.3155 134.721 81.9892C134.51 81.7571 134.377 81.4633 134.341 81.1502C134.306 80.837 134.37 80.5205 134.523 80.2461L134.543 80.2112Z" fill="#2F2E41"/>
</g>
<defs>
<clipPath id="clip0_308_590">
<rect width="175" height="168" fill="white"/>
</clipPath>
</defs>
</svg>
