<svg width="181" height="150" viewBox="0 0 181 150" fill="none" xmlns="http://www.w3.org/2000/svg">
<path d="M180.738 7.52518H0.261939C0.192469 7.52518 0.125843 7.49752 0.07672 7.44827C0.0275969 7.39903 0 7.33224 0 7.26259C0 7.19295 0.0275969 7.12616 0.07672 7.07691C0.125843 7.02767 0.192469 7 0.261939 7H180.738C180.808 7 180.874 7.02767 180.923 7.07691C180.972 7.12616 181 7.19295 181 7.26259C181 7.33224 180.972 7.39903 180.923 7.44827C180.874 7.49752 180.808 7.52518 180.738 7.52518Z" fill="#CACACA"/>
<path d="M5.16167 3.78C6.20289 3.78 7.04697 2.93382 7.04697 1.89C7.04697 0.846182 6.20289 0 5.16167 0C4.12045 0 3.27637 0.846182 3.27637 1.89C3.27637 2.93382 4.12045 3.78 5.16167 3.78Z" fill="#3F3D56"/>
<path d="M15.1158 3.78C16.157 3.78 17.0011 2.93382 17.0011 1.89C17.0011 0.846182 16.157 0 15.1158 0C14.0745 0 13.2305 0.846182 13.2305 1.89C13.2305 2.93382 14.0745 3.78 15.1158 3.78Z" fill="#3F3D56"/>
<path d="M25.0689 3.78C26.1101 3.78 26.9542 2.93382 26.9542 1.89C26.9542 0.846182 26.1101 0 25.0689 0C24.0277 0 23.1836 0.846182 23.1836 1.89C23.1836 2.93382 24.0277 3.78 25.0689 3.78Z" fill="#3F3D56"/>
<path d="M113.896 27.7134H68.1545C67.5831 27.7134 67.0351 27.5385 66.631 27.2272C66.227 26.9159 66 26.4937 66 26.0534C66 25.6132 66.227 25.1909 66.631 24.8796C67.0351 24.5683 67.5831 24.3934 68.1545 24.3934H113.896C114.468 24.3934 115.016 24.5683 115.42 24.8796C115.824 25.1909 116.051 25.6132 116.051 26.0534C116.051 26.4937 115.824 26.9159 115.42 27.2272C115.016 27.5385 114.468 27.7134 113.896 27.7134Z" fill="#E4E4E4"/>
<path d="M106.522 20.32H75.5301C74.9591 20.3195 74.4117 20.1444 74.0081 19.8332C73.6046 19.5219 73.3779 19.0999 73.3779 18.66C73.3779 18.2201 73.6046 17.7981 74.0081 17.4869C74.4117 17.1756 74.9591 17.0005 75.5301 17H106.522C107.093 17 107.641 17.1749 108.045 17.4862C108.449 17.7975 108.676 18.2197 108.676 18.66C108.676 19.1003 108.449 19.5225 108.045 19.8338C107.641 20.1451 107.093 20.32 106.522 20.32Z" fill="#E4E4E4"/>
<path d="M39.5783 81.2392C48.7342 81.2392 56.1566 73.7984 56.1566 64.6196C56.1566 55.4409 48.7342 48 39.5783 48C30.4224 48 23 55.4409 23 64.6196C23 73.7984 30.4224 81.2392 39.5783 81.2392Z" fill="#F0F0F0"/>
<path d="M147.578 81.2392C156.734 81.2392 164.157 73.7984 164.157 64.6196C164.157 55.4409 156.734 48 147.578 48C138.422 48 131 55.4409 131 64.6196C131 73.7984 138.422 81.2392 147.578 81.2392Z" fill="#F0F0F0"/>
<path d="M93.5783 81.2392C102.734 81.2392 110.157 73.7984 110.157 64.6196C110.157 55.4409 102.734 48 93.5783 48C84.4224 48 77 55.4409 77 64.6196C77 73.7984 84.4224 81.2392 93.5783 81.2392Z" fill="#F0F0F0"/>
<path d="M154.825 71.8227C153.519 71.1326 152.155 70.5573 150.75 70.1033L150.571 68.1158L143.302 67.3307L142.378 69.8711L139.77 70.8524C139.677 70.8879 139.588 70.9343 139.505 70.9907H139.502C139.075 71.0269 138.664 71.1694 138.306 71.4053C138.063 71.5608 137.847 71.755 137.666 71.9803C138.019 72.2484 138.385 72.4972 138.763 72.7349L138.78 72.7432C138.887 72.8096 138.998 72.8759 139.108 72.9395C139.307 73.0583 139.511 73.1717 139.715 73.2795L139.844 73.3458C140.142 73.5006 140.445 73.6471 140.757 73.7826C140.82 73.8102 140.889 73.8379 140.953 73.8655C140.958 73.8683 140.961 73.8683 140.966 73.8711C141.113 73.9319 141.259 73.9899 141.408 74.0452C141.897 74.2325 142.396 74.393 142.902 74.5262C144.195 74.8715 145.527 75.0462 146.865 75.0459C147.353 75.0459 147.835 75.0237 148.312 74.9767C149.402 74.8759 150.478 74.6581 151.522 74.3272C151.525 74.3272 151.528 74.3244 151.53 74.3244C152.189 74.1138 152.833 73.858 153.458 73.5587C153.46 73.5559 153.466 73.5559 153.469 73.5532C153.609 73.4868 153.744 73.415 153.882 73.3458L153.948 73.3126C154.059 73.2546 154.169 73.1966 154.28 73.1358C154.555 72.9837 154.825 72.8234 155.093 72.652C155.167 72.6078 155.239 72.5608 155.313 72.511C155.418 72.4419 155.523 72.37 155.625 72.2954C155.369 72.1295 155.101 71.972 154.825 71.8227Z" fill="#3E57FE"/>
<path d="M146.653 66.0742C149.544 66.0742 151.888 63.7247 151.888 60.8263C151.888 57.928 149.544 55.5784 146.653 55.5784C143.762 55.5784 141.418 57.928 141.418 60.8263C141.418 63.7247 143.762 66.0742 146.653 66.0742Z" fill="#A0616A"/>
<path d="M143.138 58.2701C143.68 58.913 144.597 59.0944 145.443 59.1688C147.161 59.3199 149.659 59.0748 151.338 58.6862C151.458 59.8506 151.132 61.106 151.816 62.0639C152.136 60.9043 152.323 59.7116 152.371 58.5092C152.422 57.9934 152.355 57.4727 152.175 56.9868C152.079 56.7433 151.916 56.5318 151.706 56.3764C151.495 56.2209 151.246 56.1278 150.985 56.1074C151.375 55.8108 151.832 55.615 152.315 55.5373L150.653 54.6999L151.08 54.2606L148.071 54.076L148.942 53.5209C147.63 53.3402 146.303 53.2982 144.983 53.3956C144.37 53.4409 143.728 53.5274 143.232 53.8836C142.735 54.2398 142.448 54.9478 142.756 55.4707C142.37 55.5343 142.006 55.6956 141.7 55.9395C141.393 56.1833 141.154 56.5016 141.004 56.8642C140.815 57.4404 140.769 58.0543 140.871 58.6523C140.985 59.6118 141.207 60.5551 141.534 61.4639L143.138 58.2701Z" fill="#2F2E41"/>
<path d="M95.562 55.7888C96.7844 55.7888 97.7754 54.7954 97.7754 53.57C97.7754 52.3445 96.7844 51.3511 95.562 51.3511C94.3396 51.3511 93.3486 52.3445 93.3486 53.57C93.3486 54.7954 94.3396 55.7888 95.562 55.7888Z" fill="#2F2E41"/>
<path d="M93.6427 54.7244C93.3628 54.4622 93.1556 54.1317 93.0413 53.7651C92.927 53.3986 92.9096 53.0085 92.9907 52.6332C93.0718 52.2579 93.2487 51.9101 93.5041 51.6238C93.7594 51.3375 94.0845 51.1226 94.4476 51C94.1435 51.0445 93.852 51.1521 93.5916 51.3158C93.3313 51.4796 93.1078 51.6958 92.9355 51.9509C92.7631 52.206 92.6456 52.4943 92.5905 52.7974C92.5354 53.1005 92.5439 53.4118 92.6155 53.7114C92.687 54.011 92.82 54.2924 93.006 54.5377C93.192 54.7829 93.427 54.9867 93.6958 55.1359C93.9647 55.2851 94.2617 55.3765 94.5677 55.4043C94.8738 55.4322 95.1823 55.3958 95.4736 55.2975C95.145 55.3461 94.8097 55.3198 94.4927 55.2206C94.1757 55.1214 93.8851 54.9517 93.6425 54.7243L93.6427 54.7244Z" fill="#2F2E41"/>
<path d="M95.6065 67.7875C99.1974 67.7875 102.108 64.8693 102.108 61.2694C102.108 57.6695 99.1974 54.7512 95.6065 54.7512C92.0155 54.7512 89.1045 57.6695 89.1045 61.2694C89.1045 64.8693 92.0155 67.7875 95.6065 67.7875Z" fill="#2F2E41"/>
<path d="M89.8225 57.6806C90.9428 56.4174 92.5089 55.6401 94.1901 55.5125C95.8713 55.385 97.5362 55.9173 98.8334 56.997C98.7804 56.9462 98.7274 56.8952 98.6725 56.8461C97.3881 55.6926 95.6992 55.0978 93.9774 55.1926C92.2555 55.2875 90.6418 56.0641 89.4911 57.3517C88.3405 58.6393 87.7472 60.3324 87.8418 62.0586C87.9364 63.7847 88.7111 65.4025 89.9955 66.556C90.0079 66.567 90.0203 66.5781 90.0327 66.5891C90.0878 66.6382 90.1446 66.6847 90.201 66.7318C88.9795 65.5668 88.2572 63.9716 88.1866 62.2828C88.116 60.5941 88.7027 58.9439 89.8227 57.6806H89.8225Z" fill="#2F2E41"/>
<path d="M95.5519 67.7323C97.8646 67.7323 99.7395 65.8528 99.7395 63.5342C99.7395 61.2157 97.8646 59.3362 95.5519 59.3362C93.2391 59.3362 91.3643 61.2157 91.3643 63.5342C91.3643 65.8528 93.2391 67.7323 95.5519 67.7323Z" fill="#A0616A"/>
<path d="M103.045 74.4724V75.8809C102.788 76.0457 102.528 76.1999 102.263 76.346C102.157 76.4045 102.051 76.4603 101.945 76.5161L101.881 76.548C101.749 76.6145 101.619 76.6836 101.484 76.7473C101.481 76.75 101.476 76.75 101.473 76.7526C100.873 77.0404 100.254 77.2864 99.62 77.4888C99.6174 77.4888 99.6149 77.4915 99.6121 77.4915C98.6088 77.8097 97.5742 78.0191 96.5263 78.116C96.0676 78.1612 95.6037 78.1825 95.1345 78.1825C93.8484 78.1828 92.5677 78.0149 91.325 77.6828C90.691 77.5157 90.0692 77.3053 89.4639 77.053C89.4586 77.0503 89.4559 77.0503 89.4506 77.0477C89.3896 77.0211 89.3234 76.9945 89.2624 76.9679C88.9628 76.8377 88.6712 76.6968 88.3849 76.548L88.2603 76.4842C87.9554 76.3221 87.6558 76.152 87.3616 75.9686L87.3457 75.9607C86.8926 75.6776 86.4554 75.3698 86.0361 75.0385C85.8213 74.8737 85.6146 74.7009 85.413 74.5202C85.307 74.4298 85.201 74.3342 85.1003 74.2412C84.713 73.8825 84.3456 73.5028 84 73.1037C84.0458 72.8268 84.1132 72.554 84.2015 72.2878L84.2041 72.2851C84.22 72.2397 84.2386 72.1953 84.2598 72.1522C84.2744 72.1141 84.2912 72.0768 84.3102 72.0406C84.7847 71.1503 85.6437 70.9297 86.7094 70.8819C87.3112 70.8553 87.9766 70.8845 88.6792 70.8765C89.0503 70.8739 89.4347 70.8606 89.8191 70.826C92.2448 70.6055 91.8048 69.1703 91.9134 68.3969C92.0222 67.6475 92.6956 68.296 92.7406 68.3385L92.7432 68.3411C94.1159 68.9851 95.6346 69.252 97.144 69.1145C97.4038 69.0826 97.6636 69.064 97.9234 69.0561C98.6074 69.0481 98.4589 69.2447 98.2231 69.4069C98.1086 69.4824 97.989 69.5499 97.8651 69.6088C97.8651 69.6088 97.7564 70.2733 97.6451 71.2672C97.5391 72.2187 100.882 72.5482 101.537 72.7555H101.539C101.913 72.8933 102.247 73.1225 102.51 73.4224C102.773 73.7222 102.957 74.0831 103.045 74.4724V74.4724Z" fill="#3E57FE"/>
<path d="M91.3091 63.2582C91.4917 63.2582 91.6397 62.9862 91.6397 62.6506C91.6397 62.3151 91.4917 62.0431 91.3091 62.0431C91.1265 62.0431 90.9785 62.3151 90.9785 62.6506C90.9785 62.9862 91.1265 63.2582 91.3091 63.2582Z" fill="#A0616A"/>
<path d="M99.7945 63.2582C99.977 63.2582 100.125 62.9862 100.125 62.6506C100.125 62.3151 99.977 62.0431 99.7945 62.0431C99.6119 62.0431 99.4639 62.3151 99.4639 62.6506C99.4639 62.9862 99.6119 63.2582 99.7945 63.2582Z" fill="#A0616A"/>
<path d="M34.2739 65.7834L35.0694 68.546L45.2358 68.3662L45.1467 63.3043C45.0762 59.2977 42.2516 55.842 38.2549 55.9127C34.2583 55.9834 31.7171 59.3706 31.7876 63.3773L32.3682 68.5938L34.0257 68.5645L34.2739 65.7834Z" fill="#2F2E41"/>
<path d="M38.7098 67.7153C41.229 67.7153 43.2712 65.668 43.2712 63.1425C43.2712 60.617 41.229 58.5698 38.7098 58.5698C36.1906 58.5698 34.1484 60.617 34.1484 63.1425C34.1484 65.668 36.1906 67.7153 38.7098 67.7153Z" fill="#FFB6B6"/>
<path d="M43.7026 59.9316C43.6965 59.5814 43.5872 59.2409 43.3884 58.953C43.3674 58.9234 43.3463 58.8959 43.3252 58.8684C43.1562 58.6522 42.9396 58.4781 42.6924 58.3596C42.4451 58.2412 42.1739 58.1817 41.8999 58.1857L38.6215 58.2449L35.3451 58.302C34.8757 58.3114 34.4292 58.5068 34.1032 58.8455C33.7772 59.1842 33.5983 59.6385 33.6057 60.1091L34.3858 61.6838L34.8349 62.5884L34.9087 62.5461C37.7444 60.9482 38.9039 60.9271 42.6569 62.413L42.7327 62.4425L43.0301 61.6795L43.7047 59.9485L43.7026 59.9316Z" fill="#2F2E41"/>
<path d="M47.7885 70.2735C46.8101 69.2949 43.5 69.6838 43.5 69.6838L34.7631 70.2355C32.8254 70.3792 31.0797 71.9348 30.4473 72.5646C30.5484 72.664 30.6518 72.7612 30.7573 72.8542C32.6989 74.5842 35.1395 75.6494 37.7255 75.8957C40.3114 76.142 42.9085 75.5564 45.1402 74.2238C46.0764 73.6637 47.2741 72.9922 48.0247 72.208C48.322 71.8994 48.5599 71.9056 48.8234 71.5674C48.6262 71.0358 48.2632 70.5821 47.7885 70.2735V70.2735Z" fill="#3E57FE"/>
<path d="M39.5783 127C48.7342 127 56.1566 119.559 56.1566 110.38C56.1566 101.202 48.7342 93.7608 39.5783 93.7608C30.4224 93.7608 23 101.202 23 110.38C23 119.559 30.4224 127 39.5783 127Z" fill="#F0F0F0"/>
<path d="M147.578 127C156.734 127 164.157 119.559 164.157 110.38C164.157 101.202 156.734 93.7608 147.578 93.7608C138.422 93.7608 131 101.202 131 110.38C131 119.559 138.422 127 147.578 127Z" fill="#F0F0F0"/>
<path d="M93.5783 127C102.734 127 110.157 119.559 110.157 110.38C110.157 101.202 102.734 93.7608 93.5783 93.7608C84.4224 93.7608 77 101.202 77 110.38C77 119.559 84.4224 127 93.5783 127Z" fill="#F0F0F0"/>
<path d="M39.3058 112.764C41.8371 112.764 43.889 110.707 43.889 108.17C43.889 105.632 41.8371 103.575 39.3058 103.575C36.7746 103.575 34.7227 105.632 34.7227 108.17C34.7227 110.707 36.7746 112.764 39.3058 112.764Z" fill="#FFB8B8"/>
<path d="M34.9712 109.607C34.9712 109.607 35.3606 108.922 35.2701 106.631C35.1796 104.341 38.6583 105.637 41.5652 105.418C44.4721 105.2 43.8568 109.242 43.8568 109.242C43.8568 109.242 44.0665 109.001 44.5155 107.051C44.9645 105.1 43.945 103.156 43.945 103.156C43.6448 101.106 42.0267 101.763 42.0267 101.763C42.8059 102.067 42.6563 102.717 42.6563 102.717C41.9966 101.558 40.3785 102.215 40.3785 102.215C38.2204 100.857 36.0332 102.645 36.0332 102.645C33.4261 103.238 34.9551 105.317 34.9551 105.317C32.3332 106.645 34.9712 109.607 34.9712 109.607Z" fill="#2F2E41"/>
<path d="M46.9544 118.953C45.648 118.263 44.2843 117.688 42.8788 117.234L42.6994 115.246L35.431 114.461L34.5073 117.002L31.8988 117.983C31.8054 118.018 31.7165 118.065 31.6339 118.121H31.6311C31.2041 118.157 30.7928 118.3 30.4345 118.536C30.1916 118.691 29.9755 118.885 29.7949 119.111C30.1478 119.379 30.5144 119.628 30.8922 119.865L30.9089 119.874C31.0164 119.94 31.1268 120.006 31.2369 120.07C31.4355 120.189 31.6396 120.302 31.8436 120.41L31.9732 120.476C32.271 120.631 32.5743 120.778 32.8859 120.913C32.9493 120.941 33.0183 120.968 33.0817 120.996C33.0872 120.999 33.09 120.999 33.0954 121.001C33.2416 121.062 33.3877 121.12 33.5366 121.176C34.0257 121.363 34.5246 121.523 35.0311 121.657C36.3237 122.002 37.6558 122.177 38.9935 122.176C39.4816 122.176 39.9642 122.154 40.4413 122.107C41.5312 122.006 42.6073 121.789 43.6509 121.458C43.6535 121.458 43.6565 121.455 43.6591 121.455C44.3184 121.244 44.9624 120.988 45.5866 120.689C45.5892 120.686 45.5948 120.686 45.5976 120.684C45.7383 120.617 45.8733 120.545 46.0111 120.476L46.0774 120.443C46.1877 120.385 46.2981 120.327 46.4084 120.266C46.6841 120.114 46.9543 119.954 47.2216 119.782C47.296 119.738 47.3679 119.691 47.4423 119.641C47.547 119.572 47.6517 119.5 47.7539 119.426C47.4975 119.26 47.23 119.102 46.9544 118.953Z" fill="#3E57FE"/>
<path d="M100.096 116.653L97.3365 116.401L95.6854 115.192C95.6856 115.19 95.6848 115.188 95.6834 115.186L95.6791 115.188L95.6131 115.139L95.6045 115.216L92.8179 116.29L89.9546 115.628L88.964 116.702L84.5518 118.17C84.3395 118.311 84.1529 118.488 84 118.693L84.0003 118.696C84.1855 118.841 84.3759 118.984 84.5688 119.12C85.0061 119.437 85.4606 119.729 85.9301 119.996C87.0726 120.649 88.2942 121.152 89.5647 121.493C89.6797 121.525 89.7948 121.555 89.9098 121.582C90.1101 121.632 90.3124 121.679 90.5149 121.717C90.9239 121.802 91.3379 121.869 91.7569 121.918C92.3726 121.993 92.9923 122.03 93.6125 122.029C94.0365 122.029 94.4562 122.012 94.8717 121.98C95.6014 121.921 96.3262 121.81 97.0404 121.649C97.066 121.642 97.0916 121.638 97.1171 121.629C98.211 121.378 99.2741 121.007 100.287 120.523C100.443 120.448 100.598 120.372 100.752 120.292C101.129 120.098 101.495 119.889 101.851 119.665C102.119 119.498 102.381 119.321 102.637 119.137C102.795 119.024 102.95 118.909 103.104 118.789L103.087 118.754C102.815 118.172 102.395 117.672 101.871 117.304C101.346 116.935 100.734 116.711 100.096 116.653Z" fill="#3E57FE"/>
<path d="M97.4612 102.848C97.1392 102.528 96.7759 102.253 96.3811 102.03C93.9417 100.68 91.2765 100.656 89.0693 101.964C88.5206 102.288 88.0195 102.687 87.5802 103.149C86.3418 104.445 85.6483 106.168 85.6436 107.963V113.285H99.5298V107.418C99.5298 105.846 98.667 104.027 97.4612 102.848Z" fill="#2F2E41"/>
<path d="M92.3112 113.14C95.081 113.14 97.3264 110.889 97.3264 108.112C97.3264 105.335 95.081 103.084 92.3112 103.084C89.5413 103.084 87.2959 105.335 87.2959 108.112C87.2959 110.889 89.5413 113.14 92.3112 113.14Z" fill="#FFB8B8"/>
<path d="M97.4563 103.548C97.446 103.441 97.4082 103.339 97.3466 103.251C97.285 103.163 97.2017 103.092 97.1048 103.046C93.9667 101.577 90.7838 101.615 87.6499 103.162H87.5924L87.5732 103.241C86.9554 108.012 87.0428 108.117 87.0811 108.159C87.1415 108.228 87.2165 108.283 87.3005 108.32C87.3777 108.354 87.4612 108.371 87.5455 108.371H94.6996L94.7166 108.29C94.7997 107.863 94.9063 107.44 95.0362 107.025C95.3213 107.442 95.5837 107.874 95.8223 108.32L95.8521 108.371H97.2433C97.2697 108.371 97.2961 108.369 97.3222 108.364C97.4658 108.347 97.5983 108.278 97.695 108.17C97.7333 108.129 97.8227 108.031 97.4563 103.548Z" fill="#2F2E41"/>
<path d="M150.519 117.336L150.339 115.325L142.976 114.53L142.044 117.103L139.4 118.096C139.305 118.131 139.213 118.178 139.129 118.235C138.601 118.283 138.099 118.487 137.688 118.822C137.748 118.872 137.808 118.92 137.868 118.968C137.881 118.98 137.895 118.991 137.908 119.001C138.076 119.132 138.248 119.261 138.423 119.384C138.468 119.417 138.514 119.451 138.562 119.482C138.945 119.754 139.341 120.006 139.749 120.237C140.14 120.46 140.54 120.666 140.952 120.854C141.707 121.2 142.489 121.482 143.292 121.697C143.404 121.728 143.516 121.757 143.628 121.784C143.823 121.832 144.02 121.878 144.218 121.915C144.616 121.998 145.02 122.064 145.428 122.111C146.028 122.184 146.632 122.22 147.237 122.219C147.65 122.219 148.059 122.203 148.464 122.171C149.175 122.114 149.881 122.006 150.577 121.849C150.602 121.842 150.627 121.838 150.652 121.83C151.718 121.585 152.754 121.223 153.742 120.752C153.893 120.679 154.045 120.604 154.194 120.527C154.562 120.337 154.919 120.133 155.266 119.915C155.39 119.838 155.513 119.759 155.635 119.675C153.752 118.406 151.018 117.496 150.519 117.336Z" fill="#3E57FE"/>
<path d="M146.37 113.257C149.298 113.257 151.672 110.877 151.672 107.941C151.672 105.006 149.298 102.626 146.37 102.626C143.442 102.626 141.068 105.006 141.068 107.941C141.068 110.877 143.442 113.257 146.37 113.257Z" fill="#A0616A"/>
<path d="M142.811 105.352C143.36 106.003 144.288 106.187 145.145 106.261C146.885 106.414 149.415 106.166 151.116 105.773C151.238 106.952 150.907 108.223 151.599 109.194C151.924 108.019 152.113 106.811 152.162 105.593C152.214 105.071 152.146 104.544 151.963 104.051C151.866 103.805 151.701 103.591 151.488 103.433C151.275 103.276 151.022 103.181 150.758 103.161C150.816 103.101 150.856 103.025 150.874 102.943C150.891 102.861 150.884 102.776 150.855 102.697C150.791 102.42 150.65 102.166 150.448 101.966C150.247 101.765 149.992 101.626 149.715 101.565L147.806 101.104C147.806 101.104 146.016 100.316 144.678 100.415C144.056 100.461 143.407 100.549 142.904 100.909C142.401 101.27 142.11 101.987 142.422 102.517C142.031 102.581 141.663 102.745 141.353 102.992C141.042 103.238 140.8 103.561 140.648 103.928C140.457 104.512 140.41 105.133 140.514 105.739C140.628 106.711 140.854 107.666 141.185 108.587L142.811 105.352Z" fill="#2F2E41"/>
<path d="M100.076 60.3217C99.9146 59.8052 99.556 59.3737 99.0782 59.1219C98.6041 58.8752 98.0977 58.6968 97.574 58.5918C96.6584 58.3277 95.7096 58.1975 94.7568 58.2052C93.8068 58.252 92.8355 58.5808 92.19 59.2812C91.5445 59.9817 91.3052 61.0939 91.7754 61.9228L91.7234 62.1371C92.4771 62.227 93.2406 62.0959 93.9215 61.7596C94.6024 61.4234 95.1715 60.8965 95.5598 60.2428C95.9161 60.8069 96.4223 61.2604 97.0214 61.5522C97.6205 61.844 98.2889 61.9627 98.9515 61.8948C99.163 61.8777 99.369 61.8183 99.5572 61.7202C99.7805 61.5724 99.9511 61.3572 100.044 61.1058C100.137 60.8544 100.148 60.5798 100.076 60.3217V60.3217Z" fill="#2F2E41"/>
<path d="M174.774 1.41643H167.702C167.563 1.41643 167.429 1.37956 167.331 1.31392C167.233 1.24828 167.178 1.15926 167.178 1.06643C167.178 0.973605 167.233 0.884581 167.331 0.818943C167.429 0.753305 167.563 0.716431 167.702 0.716431H174.774C174.913 0.716431 175.046 0.753305 175.144 0.818943C175.243 0.884581 175.298 0.973605 175.298 1.06643C175.298 1.15926 175.243 1.24828 175.144 1.31392C175.046 1.37956 174.913 1.41643 174.774 1.41643Z" fill="#3F3D56"/>
<path d="M174.774 3.38585H167.702C167.563 3.38585 167.429 3.34898 167.331 3.28334C167.233 3.2177 167.178 3.12868 167.178 3.03585C167.178 2.94303 167.233 2.854 167.331 2.78836C167.429 2.72273 167.563 2.68585 167.702 2.68585H174.774C174.913 2.68585 175.046 2.72273 175.144 2.78836C175.243 2.854 175.298 2.94303 175.298 3.03585C175.298 3.12868 175.243 3.2177 175.144 3.28334C175.046 3.34898 174.913 3.38585 174.774 3.38585Z" fill="#3F3D56"/>
<path d="M174.774 5.35533H167.702C167.563 5.35533 167.429 5.31846 167.331 5.25282C167.233 5.18718 167.178 5.09816 167.178 5.00533C167.178 4.91251 167.233 4.82348 167.331 4.75785C167.429 4.69221 167.563 4.65533 167.702 4.65533H174.774C174.913 4.65533 175.046 4.69221 175.144 4.75785C175.243 4.82348 175.298 4.91251 175.298 5.00533C175.298 5.09816 175.243 5.18718 175.144 5.25282C175.046 5.31846 174.913 5.35533 174.774 5.35533Z" fill="#3F3D56"/>
</svg>
