<svg width="220" height="150" viewBox="0 0 220 150" fill="none" xmlns="http://www.w3.org/2000/svg">
<path d="M194.701 70.4419H28.4424V149.526H194.701V70.4419Z" fill="#E6E6E6"/>
<path d="M189.947 77.2234H33.1963V143.206H189.947V77.2234Z" fill="white"/>
<path d="M163.733 89.5049H159.674V93.5738H163.733V89.5049Z" fill="#E6E6E6"/>
<path d="M55.4653 89.5049H51.4062V93.5738H55.4653V89.5049Z" fill="#3E57FE"/>
<path d="M64.8194 101.16H51.2891V114.723H64.8194V101.16Z" fill="#E6E6E6"/>
<path d="M194.63 65.8727H28.3711V72.953H194.63V65.8727Z" fill="#3E57FE"/>
<path d="M33.6207 72.2959C34.3437 72.2959 34.9298 71.7083 34.9298 70.9836C34.9298 70.2588 34.3437 69.6713 33.6207 69.6713C32.8976 69.6713 32.3115 70.2588 32.3115 70.9836C32.3115 71.7083 32.8976 72.2959 33.6207 72.2959Z" fill="white"/>
<path d="M38.5894 72.2959C39.3124 72.2959 39.8985 71.7083 39.8985 70.9836C39.8985 70.2588 39.3124 69.6713 38.5894 69.6713C37.8664 69.6713 37.2803 70.2588 37.2803 70.9836C37.2803 71.7083 37.8664 72.2959 38.5894 72.2959Z" fill="white"/>
<path d="M43.5582 72.2959C44.2812 72.2959 44.8673 71.7083 44.8673 70.9836C44.8673 70.2588 44.2812 69.6713 43.5582 69.6713C42.8351 69.6713 42.249 70.2588 42.249 70.9836C42.249 71.7083 42.8351 72.2959 43.5582 72.2959Z" fill="white"/>
<path d="M220 149.526H0V150H220V149.526Z" fill="#E6E6E6"/>
<path d="M112.002 102.516H78.8525V104.424H112.002V102.516Z" fill="#E6E6E6"/>
<path d="M130.042 109.475H78.8525V111.382H130.042V109.475Z" fill="#3E57FE"/>
<path d="M120.571 116.03H78.8525V117.937H120.571V116.03Z" fill="#E6E6E6"/>
<path d="M103.207 122.561H78.8525V124.468H103.207V122.561Z" fill="#E6E6E6"/>
<path d="M115.61 129.091H78.8525V130.999H115.61V129.091Z" fill="#E6E6E6"/>
<path d="M170.724 89.5049H166.665V93.5738H170.724V89.5049Z" fill="#E6E6E6"/>
<path d="M177.714 89.5049H173.655V93.5738H177.714V89.5049Z" fill="#E6E6E6"/>
<path opacity="0.997" d="M169.471 124.468C174.023 124.468 177.714 120.768 177.714 116.205C177.714 111.641 174.023 107.941 169.471 107.941C164.918 107.941 161.228 111.641 161.228 116.205C161.228 120.768 164.918 124.468 169.471 124.468Z" fill="#3E57FE"/>
<path d="M44.5411 22.3749C49.6666 22.3749 53.8216 18.2098 53.8216 13.0719C53.8216 7.93405 49.6666 3.76898 44.5411 3.76898C39.4157 3.76898 35.2607 7.93405 35.2607 13.0719C35.2607 18.2098 39.4157 22.3749 44.5411 22.3749Z" fill="#2F2E41"/>
<path d="M21.4449 92.6692H17.3805L15.4473 76.9579H21.4445L21.4449 92.6692Z" fill="#FEB8B8"/>
<path d="M14.4792 91.5051H22.3158V96.4514H9.54492C9.54492 95.1396 10.0648 93.8815 10.9901 92.9539C11.9155 92.0263 13.1706 91.5051 14.4792 91.5051Z" fill="#2F2E41"/>
<path d="M15.1024 90.3958L11.2256 89.1761L14.0735 73.6049L19.7954 75.4052L15.1024 90.3958Z" fill="#FEB8B8"/>
<path d="M8.80133 87.1951L16.2786 89.5474L14.8012 94.2667L2.61621 90.4335C2.81023 89.8137 3.12412 89.2384 3.53997 88.7402C3.95582 88.2421 4.46547 87.8309 5.03983 87.5302C5.6142 87.2295 6.24202 87.0451 6.88746 86.9877C7.5329 86.9302 8.18331 87.0007 8.80156 87.1952L8.80133 87.1951Z" fill="#2F2E41"/>
<path d="M16.4245 84.1263C16.247 84.1263 16.0709 84.0942 15.9046 84.0316L12.9142 82.9081C12.5786 82.7807 12.2998 82.5368 12.1286 82.2206C11.9574 81.9045 11.9052 81.5372 11.9815 81.1857C12.7341 77.7934 15.2992 66.2441 16.7038 60.0495C18.3695 52.7018 42.6702 51.3364 43.7038 51.2819L43.7889 51.2774L46.5225 54.7195C47.5102 57.9022 47.1971 60.3847 45.5919 62.0983C40.9076 67.0976 26.9224 63.9954 25.2548 63.6029L17.8218 83.1637C17.7135 83.4469 17.522 83.6905 17.2727 83.8624C17.0233 84.0343 16.7278 84.1263 16.4252 84.1263H16.4245Z" fill="#2F2E41"/>
<path d="M20.7332 86.4523C20.5556 86.4522 20.3795 86.4201 20.2133 86.3575L17.2238 85.2338C16.8882 85.1065 16.6093 84.8625 16.4381 84.5464C16.2669 84.2302 16.2147 83.8629 16.2911 83.5114C17.0438 80.1191 19.6088 68.5698 21.0134 62.3752C22.6792 55.0274 46.9798 53.6621 48.0134 53.6076L48.0985 53.6031L50.8311 57.0461C51.8189 60.2288 51.5058 62.7113 49.9006 64.4249C45.2165 69.4231 31.231 66.3221 29.5634 65.9293L22.1295 85.4893C22.0212 85.7726 21.8297 86.0162 21.5804 86.1881C21.331 86.36 21.0356 86.452 20.7329 86.452L20.7332 86.4523Z" fill="#2F2E41"/>
<path d="M12.0845 38.6006C12.1943 38.7479 12.2924 38.9036 12.3778 39.0663L28.7249 40.7927L31.0785 37.5583L36.4117 40.4802L31.7898 48.3285L11.7414 43.2044C11.2356 43.6987 10.5916 44.027 9.89516 44.1455C9.19869 44.264 8.48273 44.1672 7.84249 43.8679C7.20226 43.5686 6.66809 43.081 6.31104 42.47C5.95399 41.8589 5.79098 41.1534 5.84368 40.4472C5.89638 39.741 6.1623 39.0677 6.60607 38.5167C7.04984 37.9657 7.65043 37.5632 8.32797 37.3627C9.0055 37.1622 9.72786 37.1733 10.399 37.3943C11.0701 37.6154 11.6582 38.0361 12.085 38.6004L12.0845 38.6006Z" fill="#FEB8B8"/>
<path d="M50.0728 58.3641C49.8364 58.3636 49.6036 58.3067 49.3934 58.1983C46.1246 56.5321 39.7595 53.6467 33.8571 53.0429C33.6551 53.023 33.4595 52.9611 33.2828 52.861C33.1061 52.7608 32.9522 52.6248 32.8311 52.4616C32.7076 52.2966 32.6193 52.1079 32.5718 51.9072C32.5242 51.7065 32.5185 51.4982 32.5548 51.2952C33.0874 48.3396 34.3091 40.8135 34.1518 34.7819C34.1054 32.9273 34.6899 31.1121 35.8092 29.6347C36.9285 28.1572 38.5159 27.1055 40.3106 26.6524C41.3907 26.3667 42.4878 26.1499 43.5952 26.0032C44.8685 25.8415 46.1618 25.981 47.3715 26.4105C48.5813 26.8401 49.6739 27.5476 50.5619 28.4765C51.4498 29.4055 52.1083 30.5299 52.4848 31.7599C52.8612 32.9898 52.9451 34.2911 52.7296 35.5593C51.6771 41.8101 50.6158 50.5405 51.5381 56.6349C51.5805 56.9081 51.5466 57.1876 51.4402 57.4427C51.3338 57.6977 51.1591 57.9183 50.9353 58.0799C50.685 58.2636 50.3831 58.3631 50.0728 58.3641Z" fill="#CCCCCC"/>
<path d="M34.4542 42.4653C34.2504 42.465 34.0489 42.4228 33.862 42.3414L29.6036 40.4937C29.2408 40.3359 28.9554 40.0402 28.8099 39.6716C28.6643 39.303 28.6706 38.8916 28.8273 38.5277L32.119 30.9051C32.3146 30.4432 32.5989 30.0245 32.9559 29.6727C33.3129 29.321 33.7355 29.0432 34.1996 28.8552C34.6636 28.6672 35.1601 28.5727 35.6607 28.577C36.1612 28.5813 36.656 28.6844 37.1167 28.8804C37.5775 29.0764 37.9953 29.3615 38.3461 29.7194C38.697 30.0772 38.9741 30.5008 39.1617 30.966C39.3492 31.4312 39.4436 31.9289 39.4392 32.4307C39.4349 32.9324 39.3321 33.4284 39.1365 33.8903C39.1294 33.9071 39.1222 33.9238 39.1148 33.9405L35.8231 41.5633C35.7072 41.8308 35.516 42.0587 35.2728 42.2189C35.0297 42.3791 34.7452 42.4648 34.4542 42.4653Z" fill="#CCCCCC"/>
<path d="M44.2022 23.4101C48.6982 23.4101 52.3429 19.7565 52.3429 15.2496C52.3429 10.7427 48.6982 7.08911 44.2022 7.08911C39.7062 7.08911 36.0615 10.7427 36.0615 15.2496C36.0615 19.7565 39.7062 23.4101 44.2022 23.4101Z" fill="#FEB8B8"/>
<path d="M35.915 11.2394C39.771 13.5991 44.1181 15.0349 48.6181 15.4353L47.2789 13.8271C48.2539 14.1885 49.2798 14.3927 50.3185 14.4321C50.8386 14.4472 51.355 14.3399 51.8263 14.1188C52.2975 13.8977 52.7105 13.5689 53.032 13.1589C53.2946 12.7333 53.4505 12.2503 53.4866 11.7513C53.5227 11.2522 53.4378 10.7517 53.2393 10.2926C52.8313 9.37659 52.1962 8.58045 51.3944 7.98C49.9733 6.85308 48.2961 6.09611 46.5124 5.77654C44.7286 5.45697 42.8937 5.58474 41.1712 6.14845C39.9895 6.50241 38.9313 7.1829 38.1176 8.11193C37.3459 9.06632 35.8602 9.91672 36.2553 11.0796L35.915 11.2394Z" fill="#2F2E41"/>
<path d="M44.9297 4.36498C46.5523 2.7151 48.516 1.44184 50.6825 0.634846C52.0577 0.0549537 53.5659 -0.132693 55.0407 0.0926298C56.4947 0.385886 57.8695 1.39404 58.2752 2.82408C58.6061 3.99332 58.2644 5.25233 57.7497 6.35358C57.235 7.45482 56.5479 8.47506 56.1315 9.61682C55.7067 10.7818 55.579 12.0348 55.7598 13.2618C55.9407 14.4889 56.4244 15.6513 57.167 16.6434C57.9097 17.6356 58.8878 18.4261 60.0126 18.9431C61.1373 19.4602 62.3731 19.6875 63.6077 19.6043C62.1792 19.7965 60.8626 20.4694 59.4662 20.8273C58.0699 21.1853 56.4219 21.1613 55.3843 20.1584C54.2864 19.0974 54.2644 17.3725 54.3176 15.8448L54.5539 9.03173C54.5941 7.87363 54.6286 6.67834 54.2118 5.59698C53.7949 4.51563 52.8048 3.5693 51.6488 3.57925C50.7726 3.5866 49.9973 4.11886 49.2945 4.64355C48.5917 5.16823 47.8481 5.72798 46.9754 5.80615C46.1027 5.88432 45.1062 5.23764 45.1714 4.36119" fill="#2F2E41"/>
<path d="M30.5149 56.2677C29.9756 56.267 29.443 56.1465 28.9557 55.9147C28.4684 55.6829 28.0385 55.3456 27.6969 54.9272C27.3552 54.5087 27.1105 54.0196 26.9801 53.4949C26.8498 52.9702 26.8372 52.4231 26.9432 51.8929C27.0492 51.3628 27.2712 50.8628 27.5932 50.429C27.9151 49.9952 28.3291 49.6384 28.8052 49.3843C29.2813 49.1301 29.8077 48.985 30.3465 48.9594C30.8852 48.9337 31.423 49.0282 31.921 49.236C32.0707 49.2994 32.2159 49.3731 32.3555 49.4567L47.1848 42.7836L47.6014 38.7519L53.9937 38.5804L53.9514 45.2924C53.9437 46.07 53.686 46.8244 53.2166 47.4436C52.7471 48.0627 52.091 48.5136 51.3457 48.7293L34.0045 53.6765C33.971 53.7913 33.9316 53.9043 33.8863 54.015C33.6081 54.6812 33.1399 55.2502 32.5405 55.6509C31.9411 56.0516 31.2371 56.2661 30.5166 56.2675L30.5149 56.2677Z" fill="#FEB8B8"/>
<path d="M53.4525 41.8693C53.2707 41.9615 53.072 42.0153 52.8686 42.0275L48.237 42.3129C47.8423 42.3368 47.4543 42.2028 47.1581 41.9402C46.8618 41.6777 46.6816 41.3081 46.6568 40.9125L46.1485 32.6218C46.0876 31.611 46.4295 30.6173 47.099 29.859C47.7685 29.1007 48.711 28.6398 49.7193 28.5777C50.7275 28.5155 51.7192 28.857 52.4764 29.5273C53.2336 30.1976 53.6944 31.1418 53.7576 32.1525L54.2661 40.4433C54.2837 40.7345 54.2162 41.0246 54.0718 41.2779C53.9273 41.5312 53.7123 41.7367 53.453 41.8693H53.4525Z" fill="#CCCCCC"/>
<path d="M44.1261 54.7802H16.4621C16.2301 54.7802 16.042 54.9687 16.042 55.2013V56.6847C16.042 56.9173 16.2301 57.1058 16.4621 57.1058H44.1261C44.3582 57.1058 44.5463 56.9173 44.5463 56.6847V55.2013C44.5463 54.9687 44.3582 54.7802 44.1261 54.7802Z" fill="#3F3D56"/>
<path d="M5.41211 54.9464V38.666C5.4128 38.0934 5.64 37.5445 6.04388 37.1396C6.44775 36.7348 6.99533 36.507 7.5665 36.5063H37.0652C37.6364 36.507 38.184 36.7347 38.5879 37.1396C38.9918 37.5444 39.2189 38.0934 39.2196 38.666V54.9464C39.2189 55.519 38.9918 56.0679 38.5879 56.4728C38.184 56.8777 37.6364 57.1054 37.0652 57.106H7.5665C6.99533 57.1054 6.44775 56.8776 6.04388 56.4727C5.64 56.0679 5.4128 55.519 5.41211 54.9464Z" fill="#3F3D56"/>
<path d="M22.6714 48.8006C23.7697 48.8006 24.6601 47.9081 24.6601 46.807C24.6601 45.706 23.7697 44.8135 22.6714 44.8135C21.573 44.8135 20.6826 45.706 20.6826 46.807C20.6826 47.9081 21.573 48.8006 22.6714 48.8006Z" fill="white"/>
</svg>
