<svg width="48" height="49" viewBox="0 0 48 49" fill="none" xmlns="http://www.w3.org/2000/svg">
<g clip-path="url(#clip0_282_370)">
<path d="M48 24.5C48 11.2452 37.2548 0.5 24 0.5C10.7452 0.5 0 11.2452 0 24.5C0 37.7548 10.7452 48.5 24 48.5C37.2548 48.5 48 37.7548 48 24.5Z" fill="#419FD9"/>
<path d="M48 24.5C48 11.2452 37.2548 0.5 24 0.5C10.7452 0.5 0 11.2452 0 24.5C0 37.7548 10.7452 48.5 24 48.5C37.2548 48.5 48 37.7548 48 24.5Z" fill="url(#paint0_linear_282_370)"/>
<path d="M10.7874 23.9709C17.7667 20.8663 22.4206 18.8195 24.7493 17.8305C31.3979 15.007 32.7795 14.5165 33.68 14.5002C33.878 14.4968 34.3208 14.5469 34.6077 14.7845C34.8499 14.9852 34.9165 15.2563 34.9484 15.4465C34.9803 15.6368 35.02 16.0702 34.9884 16.4088C34.6281 20.274 33.0692 29.6539 32.276 33.983C31.9404 35.8148 31.2796 36.429 30.6399 36.4891C29.2496 36.6197 28.1938 35.551 26.8473 34.6497C24.7401 33.2395 23.5498 32.3615 21.5044 30.9854C19.1407 29.395 20.673 28.5209 22.0201 27.0923C22.3726 26.7185 28.4983 21.0295 28.6169 20.5135C28.6317 20.4489 28.6455 20.2083 28.5055 20.0813C28.3655 19.9543 28.1589 19.9977 28.0098 20.0322C27.7985 20.0812 24.4323 22.3529 17.9113 26.8473C16.9558 27.5172 16.0904 27.8435 15.315 27.8264C14.4602 27.8076 12.8159 27.333 11.5935 26.9273C10.0942 26.4296 8.90254 26.1666 9.0063 25.3215C9.06035 24.8813 9.65403 24.4311 10.7874 23.9709Z" fill="white"/>
</g>
<defs>
<linearGradient id="paint0_linear_282_370" x1="24" y1="0.5" x2="24" y2="48.144" gradientUnits="userSpaceOnUse">
<stop stop-color="#2AABEE"/>
<stop offset="1" stop-color="#229ED9"/>
</linearGradient>
<clipPath id="clip0_282_370">
<rect width="48" height="48" fill="white" transform="translate(0 0.5)"/>
</clipPath>
</defs>
</svg>
