<svg width="48" height="49" viewBox="0 0 48 49" fill="none" xmlns="http://www.w3.org/2000/svg">
<g clip-path="url(#clip0_282_364)">
<path d="M24 48.5C37.2548 48.5 48 37.7548 48 24.5C48 11.2452 37.2548 0.5 24 0.5C10.7452 0.5 0 11.2452 0 24.5C0 37.7548 10.7452 48.5 24 48.5Z" fill="#1DA1F2"/>
<path d="M36.6548 16.9416C35.7239 17.3623 34.724 17.6467 33.6727 17.7745C34.7456 17.1202 35.5676 16.0835 35.9557 14.8495C34.9365 15.466 33.8211 15.9 32.6579 16.1326C31.7113 15.1051 30.3615 14.4636 28.8681 14.4636C26.0016 14.4636 23.6769 16.83 23.6769 19.7507C23.6769 20.1646 23.7227 20.5683 23.8107 20.9559C19.4956 20.7351 15.67 18.6302 13.1093 15.4319C12.6622 16.213 12.4062 17.1212 12.4062 18.0902C12.4062 19.9243 13.3229 21.5425 14.7159 22.4904C13.8913 22.4644 13.0848 22.2377 12.3638 21.8294V21.8962C12.3638 24.4581 14.1532 26.5943 16.5285 27.0801C16.0922 27.2019 15.6343 27.2655 15.1605 27.2655C14.8256 27.2655 14.5006 27.2332 14.1832 27.1724C14.8439 29.2722 16.7613 30.8007 19.0326 30.8439C17.2557 32.2623 15.0167 33.1079 12.5849 33.1079C12.166 33.1079 11.7521 33.0824 11.3457 33.0325C13.6437 34.5331 16.3723 35.4091 19.3044 35.4091C28.8539 35.4091 34.0766 27.3527 34.0766 20.3661C34.0766 20.1367 34.0717 19.9091 34.0608 19.6822C35.0784 18.9327 35.9567 18.0047 36.6548 16.9416Z" fill="white"/>
</g>
<defs>
<clipPath id="clip0_282_364">
<rect width="48" height="48" fill="white" transform="translate(0 0.5)"/>
</clipPath>
</defs>
</svg>
